<?xml version="1.0" encoding="UTF-8"?>
<svg xmlns="http://www.w3.org/2000/svg" xmlns:xlink="http://www.w3.org/1999/xlink" width="476pt" height="209pt" viewBox="0 0 476 209" version="1.1">
<defs>
<clipPath id="clip1">
  <path d="M 66 9 L 68 9 L 68 178.875 L 66 178.875 Z M 66 9 "/>
</clipPath>
<clipPath id="clip2">
  <path d="M 143 9 L 145 9 L 145 178.875 L 143 178.875 Z M 143 9 "/>
</clipPath>
<clipPath id="clip3">
  <path d="M 220 9 L 222 9 L 222 178.875 L 220 178.875 Z M 220 9 "/>
</clipPath>
<clipPath id="clip4">
  <path d="M 296 9 L 299 9 L 299 178.875 L 296 178.875 Z M 296 9 "/>
</clipPath>
<clipPath id="clip5">
  <path d="M 373 9 L 376 9 L 376 178.875 L 373 178.875 Z M 373 9 "/>
</clipPath>
<clipPath id="clip6">
  <path d="M 450 9 L 453 9 L 453 178.875 L 450 178.875 Z M 450 9 "/>
</clipPath>
<clipPath id="clip7">
  <path d="M 48.105469 170 L 466.605469 170 L 466.605469 172 L 48.105469 172 Z M 48.105469 170 "/>
</clipPath>
<clipPath id="clip8">
  <path d="M 48.105469 131 L 466.605469 131 L 466.605469 134 L 48.105469 134 Z M 48.105469 131 "/>
</clipPath>
<clipPath id="clip9">
  <path d="M 48.105469 93 L 466.605469 93 L 466.605469 95 L 48.105469 95 Z M 48.105469 93 "/>
</clipPath>
<clipPath id="clip10">
  <path d="M 48.105469 54 L 466.605469 54 L 466.605469 57 L 48.105469 57 Z M 48.105469 54 "/>
</clipPath>
<clipPath id="clip11">
  <path d="M 48.105469 16 L 466.605469 16 L 466.605469 18 L 48.105469 18 Z M 48.105469 16 "/>
</clipPath>
<filter id="alpha" filterUnits="objectBoundingBox" x="0%" y="0%" width="100%" height="100%">
  <feColorMatrix type="matrix" in="SourceGraphic" values="0 0 0 0 1 0 0 0 0 1 0 0 0 0 1 0 0 0 1 0"/>
</filter>
<mask id="mask0">
  <g filter="url(#alpha)">
<rect x="0" y="0" width="476" height="209" style="fill:rgb(0%,0%,0%);fill-opacity:0.8;stroke:none;"/>
  </g>
</mask>
<clipPath id="clip12">
  <rect width="476" height="209"/>
</clipPath>
<g id="surface6" clip-path="url(#clip12)">
<path style="fill-rule:nonzero;fill:rgb(100%,100%,100%);fill-opacity:1;stroke-width:1;stroke-linecap:butt;stroke-linejoin:miter;stroke:rgb(80%,80%,80%);stroke-opacity:1;stroke-miterlimit:4;" d="M 45.484375 138.1 L 105.890625 138.1 C 107.225 138.1 107.890625 137.434375 107.890625 136.1 L 107.890625 78.3875 C 107.890625 77.053125 107.225 76.3875 105.890625 76.3875 L 45.484375 76.3875 C 44.15 76.3875 43.484375 77.053125 43.484375 78.3875 L 43.484375 136.1 C 43.484375 137.434375 44.15 138.1 45.484375 138.1 Z M 45.484375 138.1 " transform="matrix(1.25,0,0,1.25,0,0.000000000000014211)"/>
</g>
</defs>
<g id="surface1">
<path style=" stroke:none;fill-rule:nonzero;fill:rgb(100%,100%,100%);fill-opacity:1;" d="M 48.105469 178.875 L 466.605469 178.875 L 466.605469 9 L 48.105469 9 Z M 48.105469 178.875 "/>
<g clip-path="url(#clip1)" clip-rule="nonzero">
<path style="fill:none;stroke-width:0.8;stroke-linecap:square;stroke-linejoin:round;stroke:rgb(69.019608%,69.019608%,69.019608%);stroke-opacity:1;stroke-miterlimit:4;" d="M 53.7 143.1 L 53.7 7.2 " transform="matrix(1.25,0,0,1.25,0,0.000000000000014211)"/>
</g>
<path style="fill:none;stroke-width:0.8;stroke-linecap:butt;stroke-linejoin:round;stroke:rgb(0%,0%,0%);stroke-opacity:1;stroke-miterlimit:4;" d="M -0.000994 0 L -0.000994 3.5 " transform="matrix(1.25,0,0,1.25,67.126243,178.875)"/>
<path style=" stroke:none;fill-rule:nonzero;fill:rgb(0%,0%,0%);fill-opacity:1;" d="M 67.121094 188.824219 C 66.488281 188.824219 66.011719 189.136719 65.691406 189.761719 C 65.371094 190.382812 65.210938 191.324219 65.210938 192.578125 C 65.210938 193.824219 65.371094 194.761719 65.691406 195.386719 C 66.011719 196.011719 66.488281 196.324219 67.121094 196.324219 C 67.761719 196.324219 68.242188 196.011719 68.558594 195.386719 C 68.878906 194.761719 69.039062 193.824219 69.039062 192.578125 C 69.039062 191.324219 68.878906 190.382812 68.558594 189.761719 C 68.242188 189.136719 67.761719 188.824219 67.121094 188.824219 Z M 67.121094 187.847656 C 68.144531 187.847656 68.925781 188.25 69.464844 189.058594 C 70.003906 189.867188 70.273438 191.039062 70.273438 192.578125 C 70.273438 194.109375 70.003906 195.28125 69.464844 196.089844 C 68.925781 196.898438 68.144531 197.300781 67.121094 197.300781 C 66.101562 197.300781 65.320312 196.898438 64.78125 196.089844 C 64.242188 195.28125 63.972656 194.109375 63.972656 192.578125 C 63.972656 191.039062 64.242188 189.867188 64.78125 189.058594 C 65.320312 188.25 66.101562 187.847656 67.121094 187.847656 Z M 67.121094 187.847656 "/>
<g clip-path="url(#clip2)" clip-rule="nonzero">
<path style="fill:none;stroke-width:0.8;stroke-linecap:square;stroke-linejoin:round;stroke:rgb(69.019608%,69.019608%,69.019608%);stroke-opacity:1;stroke-miterlimit:4;" d="M 115.1875 143.1 L 115.1875 7.2 " transform="matrix(1.25,0,0,1.25,0,0.000000000000014211)"/>
</g>
<path style="fill:none;stroke-width:0.8;stroke-linecap:butt;stroke-linejoin:round;stroke:rgb(0%,0%,0%);stroke-opacity:1;stroke-miterlimit:4;" d="M -0.001098 0 L -0.001098 3.5 " transform="matrix(1.25,0,0,1.25,143.985748,178.875)"/>
<path style=" stroke:none;fill-rule:nonzero;fill:rgb(0%,0%,0%);fill-opacity:1;" d="M 138.429688 196.085938 L 142.734375 196.085938 L 142.734375 197.125 L 136.949219 197.125 L 136.949219 196.085938 C 137.417969 195.601562 138.054688 194.953125 138.859375 194.136719 C 139.667969 193.320312 140.175781 192.792969 140.382812 192.558594 C 140.777344 192.113281 141.054688 191.738281 141.210938 191.433594 C 141.367188 191.125 141.445312 190.824219 141.445312 190.527344 C 141.445312 190.042969 141.277344 189.648438 140.9375 189.34375 C 140.597656 189.035156 140.15625 188.882812 139.609375 188.882812 C 139.222656 188.882812 138.8125 188.949219 138.382812 189.085938 C 137.957031 189.21875 137.496094 189.421875 137.007812 189.695312 L 137.007812 188.449219 C 137.503906 188.25 137.96875 188.101562 138.398438 188 C 138.832031 187.898438 139.226562 187.847656 139.585938 187.847656 C 140.53125 187.847656 141.28125 188.082031 141.84375 188.554688 C 142.40625 189.027344 142.683594 189.65625 142.683594 190.445312 C 142.683594 190.820312 142.613281 191.175781 142.472656 191.511719 C 142.335938 191.847656 142.078125 192.242188 141.707031 192.699219 C 141.605469 192.816406 141.285156 193.15625 140.738281 193.722656 C 140.195312 194.285156 139.425781 195.074219 138.429688 196.085938 Z M 138.429688 196.085938 "/>
<path style=" stroke:none;fill-rule:nonzero;fill:rgb(0%,0%,0%);fill-opacity:1;" d="M 147.957031 188.824219 C 147.324219 188.824219 146.847656 189.136719 146.527344 189.761719 C 146.207031 190.382812 146.046875 191.324219 146.046875 192.578125 C 146.046875 193.824219 146.207031 194.761719 146.527344 195.386719 C 146.847656 196.011719 147.324219 196.324219 147.957031 196.324219 C 148.597656 196.324219 149.078125 196.011719 149.394531 195.386719 C 149.714844 194.761719 149.875 193.824219 149.875 192.578125 C 149.875 191.324219 149.714844 190.382812 149.394531 189.761719 C 149.078125 189.136719 148.597656 188.824219 147.957031 188.824219 Z M 147.957031 187.847656 C 148.980469 187.847656 149.761719 188.25 150.300781 189.058594 C 150.839844 189.867188 151.109375 191.039062 151.109375 192.578125 C 151.109375 194.109375 150.839844 195.28125 150.300781 196.089844 C 149.761719 196.898438 148.980469 197.300781 147.957031 197.300781 C 146.9375 197.300781 146.15625 196.898438 145.617188 196.089844 C 145.078125 195.28125 144.808594 194.109375 144.808594 192.578125 C 144.808594 191.039062 145.078125 189.867188 145.617188 189.058594 C 146.15625 188.25 146.9375 187.847656 147.957031 187.847656 Z M 147.957031 187.847656 "/>
<g clip-path="url(#clip3)" clip-rule="nonzero">
<path style="fill:none;stroke-width:0.8;stroke-linecap:square;stroke-linejoin:round;stroke:rgb(69.019608%,69.019608%,69.019608%);stroke-opacity:1;stroke-miterlimit:4;" d="M 176.675 143.1 L 176.675 7.2 " transform="matrix(1.25,0,0,1.25,0,0.000000000000014211)"/>
</g>
<path style="fill:none;stroke-width:0.8;stroke-linecap:butt;stroke-linejoin:round;stroke:rgb(0%,0%,0%);stroke-opacity:1;stroke-miterlimit:4;" d="M -0.001201 0 L -0.001201 3.5 " transform="matrix(1.25,0,0,1.25,220.845251,178.875)"/>
<path style=" stroke:none;fill-rule:nonzero;fill:rgb(0%,0%,0%);fill-opacity:1;" d="M 217.617188 189.085938 L 214.503906 193.949219 L 217.617188 193.949219 Z M 217.292969 188.011719 L 218.84375 188.011719 L 218.84375 193.949219 L 220.144531 193.949219 L 220.144531 194.976562 L 218.84375 194.976562 L 218.84375 197.125 L 217.617188 197.125 L 217.617188 194.976562 L 213.503906 194.976562 L 213.503906 193.785156 Z M 217.292969 188.011719 "/>
<path style=" stroke:none;fill-rule:nonzero;fill:rgb(0%,0%,0%);fill-opacity:1;" d="M 224.816406 188.824219 C 224.183594 188.824219 223.707031 189.136719 223.386719 189.761719 C 223.066406 190.382812 222.90625 191.324219 222.90625 192.578125 C 222.90625 193.824219 223.066406 194.761719 223.386719 195.386719 C 223.707031 196.011719 224.183594 196.324219 224.816406 196.324219 C 225.457031 196.324219 225.9375 196.011719 226.253906 195.386719 C 226.574219 194.761719 226.734375 193.824219 226.734375 192.578125 C 226.734375 191.324219 226.574219 190.382812 226.253906 189.761719 C 225.9375 189.136719 225.457031 188.824219 224.816406 188.824219 Z M 224.816406 187.847656 C 225.839844 187.847656 226.621094 188.25 227.160156 189.058594 C 227.699219 189.867188 227.96875 191.039062 227.96875 192.578125 C 227.96875 194.109375 227.699219 195.28125 227.160156 196.089844 C 226.621094 196.898438 225.839844 197.300781 224.816406 197.300781 C 223.796875 197.300781 223.015625 196.898438 222.476562 196.089844 C 221.9375 195.28125 221.667969 194.109375 221.667969 192.578125 C 221.667969 191.039062 221.9375 189.867188 222.476562 189.058594 C 223.015625 188.25 223.796875 187.847656 224.816406 187.847656 Z M 224.816406 187.847656 "/>
<g clip-path="url(#clip4)" clip-rule="nonzero">
<path style="fill:none;stroke-width:0.8;stroke-linecap:square;stroke-linejoin:round;stroke:rgb(69.019608%,69.019608%,69.019608%);stroke-opacity:1;stroke-miterlimit:4;" d="M 238.1625 143.1 L 238.1625 7.2 " transform="matrix(1.25,0,0,1.25,0,0.000000000000014211)"/>
</g>
<path style="fill:none;stroke-width:0.8;stroke-linecap:butt;stroke-linejoin:round;stroke:rgb(0%,0%,0%);stroke-opacity:1;stroke-miterlimit:4;" d="M -0.001304 0 L -0.001304 3.5 " transform="matrix(1.25,0,0,1.25,297.704755,178.875)"/>
<path style=" stroke:none;fill-rule:nonzero;fill:rgb(0%,0%,0%);fill-opacity:1;" d="M 293.878906 192.078125 C 293.324219 192.078125 292.886719 192.265625 292.5625 192.644531 C 292.238281 193.023438 292.078125 193.539062 292.078125 194.199219 C 292.078125 194.855469 292.238281 195.371094 292.5625 195.753906 C 292.886719 196.132812 293.324219 196.324219 293.878906 196.324219 C 294.433594 196.324219 294.871094 196.132812 295.191406 195.753906 C 295.515625 195.371094 295.675781 194.855469 295.675781 194.199219 C 295.675781 193.539062 295.515625 193.023438 295.191406 192.644531 C 294.871094 192.265625 294.433594 192.078125 293.878906 192.078125 Z M 296.324219 188.210938 L 296.324219 189.335938 C 296.015625 189.1875 295.703125 189.078125 295.386719 189 C 295.074219 188.921875 294.761719 188.882812 294.449219 188.882812 C 293.636719 188.882812 293.015625 189.15625 292.585938 189.707031 C 292.15625 190.257812 291.914062 191.085938 291.851562 192.199219 C 292.089844 191.84375 292.390625 191.570312 292.753906 191.382812 C 293.117188 191.195312 293.515625 191.101562 293.949219 191.101562 C 294.867188 191.101562 295.589844 191.378906 296.121094 191.933594 C 296.652344 192.488281 296.917969 193.242188 296.917969 194.199219 C 296.917969 195.136719 296.640625 195.886719 296.085938 196.453125 C 295.535156 197.019531 294.796875 197.300781 293.878906 197.300781 C 292.824219 197.300781 292.019531 196.898438 291.460938 196.089844 C 290.902344 195.28125 290.625 194.109375 290.625 192.578125 C 290.625 191.136719 290.964844 189.988281 291.648438 189.132812 C 292.332031 188.273438 293.25 187.847656 294.402344 187.847656 C 294.710938 187.847656 295.023438 187.875 295.339844 187.9375 C 295.65625 188 295.984375 188.089844 296.324219 188.210938 Z M 296.324219 188.210938 "/>
<path style=" stroke:none;fill-rule:nonzero;fill:rgb(0%,0%,0%);fill-opacity:1;" d="M 301.675781 188.824219 C 301.042969 188.824219 300.566406 189.136719 300.246094 189.761719 C 299.925781 190.382812 299.765625 191.324219 299.765625 192.578125 C 299.765625 193.824219 299.925781 194.761719 300.246094 195.386719 C 300.566406 196.011719 301.042969 196.324219 301.675781 196.324219 C 302.316406 196.324219 302.796875 196.011719 303.113281 195.386719 C 303.433594 194.761719 303.59375 193.824219 303.59375 192.578125 C 303.59375 191.324219 303.433594 190.382812 303.113281 189.761719 C 302.796875 189.136719 302.316406 188.824219 301.675781 188.824219 Z M 301.675781 187.847656 C 302.699219 187.847656 303.480469 188.25 304.019531 189.058594 C 304.558594 189.867188 304.828125 191.039062 304.828125 192.578125 C 304.828125 194.109375 304.558594 195.28125 304.019531 196.089844 C 303.480469 196.898438 302.699219 197.300781 301.675781 197.300781 C 300.65625 197.300781 299.875 196.898438 299.335938 196.089844 C 298.796875 195.28125 298.527344 194.109375 298.527344 192.578125 C 298.527344 191.039062 298.796875 189.867188 299.335938 189.058594 C 299.875 188.25 300.65625 187.847656 301.675781 187.847656 Z M 301.675781 187.847656 "/>
<g clip-path="url(#clip5)" clip-rule="nonzero">
<path style="fill:none;stroke-width:0.8;stroke-linecap:square;stroke-linejoin:round;stroke:rgb(69.019608%,69.019608%,69.019608%);stroke-opacity:1;stroke-miterlimit:4;" d="M 299.65 143.1 L 299.65 7.2 " transform="matrix(1.25,0,0,1.25,0,0.000000000000014211)"/>
</g>
<path style="fill:none;stroke-width:0.8;stroke-linecap:butt;stroke-linejoin:round;stroke:rgb(0%,0%,0%);stroke-opacity:1;stroke-miterlimit:4;" d="M -0.001408 0 L -0.001408 3.5 " transform="matrix(1.25,0,0,1.25,374.56426,178.875)"/>
<path style=" stroke:none;fill-rule:nonzero;fill:rgb(0%,0%,0%);fill-opacity:1;" d="M 370.582031 192.796875 C 369.996094 192.796875 369.535156 192.953125 369.199219 193.265625 C 368.867188 193.578125 368.699219 194.011719 368.699219 194.558594 C 368.699219 195.109375 368.867188 195.539062 369.199219 195.855469 C 369.535156 196.167969 369.996094 196.324219 370.582031 196.324219 C 371.167969 196.324219 371.632812 196.167969 371.96875 195.851562 C 372.308594 195.535156 372.476562 195.105469 372.476562 194.558594 C 372.476562 194.011719 372.308594 193.578125 371.972656 193.265625 C 371.636719 192.953125 371.175781 192.796875 370.582031 192.796875 Z M 369.351562 192.273438 C 368.824219 192.140625 368.410156 191.894531 368.113281 191.535156 C 367.820312 191.171875 367.671875 190.726562 367.671875 190.207031 C 367.671875 189.480469 367.933594 188.902344 368.449219 188.480469 C 368.96875 188.058594 369.679688 187.847656 370.582031 187.847656 C 371.492188 187.847656 372.203125 188.058594 372.71875 188.480469 C 373.238281 188.902344 373.496094 189.480469 373.496094 190.207031 C 373.496094 190.726562 373.347656 191.171875 373.050781 191.535156 C 372.757812 191.894531 372.347656 192.140625 371.824219 192.273438 C 372.417969 192.410156 372.878906 192.679688 373.210938 193.085938 C 373.542969 193.488281 373.707031 193.976562 373.707031 194.558594 C 373.707031 195.441406 373.4375 196.121094 372.898438 196.59375 C 372.359375 197.066406 371.589844 197.300781 370.582031 197.300781 C 369.578125 197.300781 368.808594 197.066406 368.265625 196.59375 C 367.726562 196.121094 367.457031 195.441406 367.457031 194.558594 C 367.457031 193.976562 367.625 193.488281 367.957031 193.085938 C 368.292969 192.679688 368.757812 192.410156 369.351562 192.273438 Z M 368.898438 190.324219 C 368.898438 190.796875 369.046875 191.164062 369.339844 191.429688 C 369.636719 191.691406 370.050781 191.824219 370.582031 191.824219 C 371.113281 191.824219 371.527344 191.691406 371.824219 191.429688 C 372.125 191.164062 372.273438 190.796875 372.273438 190.324219 C 372.273438 189.851562 372.125 189.484375 371.824219 189.21875 C 371.527344 188.953125 371.113281 188.824219 370.582031 188.824219 C 370.050781 188.824219 369.636719 188.953125 369.339844 189.21875 C 369.046875 189.484375 368.898438 189.851562 368.898438 190.324219 Z M 368.898438 190.324219 "/>
<path style=" stroke:none;fill-rule:nonzero;fill:rgb(0%,0%,0%);fill-opacity:1;" d="M 378.535156 188.824219 C 377.902344 188.824219 377.425781 189.136719 377.105469 189.761719 C 376.785156 190.382812 376.625 191.324219 376.625 192.578125 C 376.625 193.824219 376.785156 194.761719 377.105469 195.386719 C 377.425781 196.011719 377.902344 196.324219 378.535156 196.324219 C 379.175781 196.324219 379.65625 196.011719 379.972656 195.386719 C 380.292969 194.761719 380.453125 193.824219 380.453125 192.578125 C 380.453125 191.324219 380.292969 190.382812 379.972656 189.761719 C 379.65625 189.136719 379.175781 188.824219 378.535156 188.824219 Z M 378.535156 187.847656 C 379.558594 187.847656 380.339844 188.25 380.878906 189.058594 C 381.417969 189.867188 381.6875 191.039062 381.6875 192.578125 C 381.6875 194.109375 381.417969 195.28125 380.878906 196.089844 C 380.339844 196.898438 379.558594 197.300781 378.535156 197.300781 C 377.515625 197.300781 376.734375 196.898438 376.195312 196.089844 C 375.65625 195.28125 375.386719 194.109375 375.386719 192.578125 C 375.386719 191.039062 375.65625 189.867188 376.195312 189.058594 C 376.734375 188.25 377.515625 187.847656 378.535156 187.847656 Z M 378.535156 187.847656 "/>
<g clip-path="url(#clip6)" clip-rule="nonzero">
<path style="fill:none;stroke-width:0.8;stroke-linecap:square;stroke-linejoin:round;stroke:rgb(69.019608%,69.019608%,69.019608%);stroke-opacity:1;stroke-miterlimit:4;" d="M 361.1375 143.1 L 361.1375 7.2 " transform="matrix(1.25,0,0,1.25,0,0.000000000000014211)"/>
</g>
<path style="fill:none;stroke-width:0.8;stroke-linecap:butt;stroke-linejoin:round;stroke:rgb(0%,0%,0%);stroke-opacity:1;stroke-miterlimit:4;" d="M -0.001511 0 L -0.001511 3.5 " transform="matrix(1.25,0,0,1.25,451.423764,178.875)"/>
<path style=" stroke:none;fill-rule:nonzero;fill:rgb(0%,0%,0%);fill-opacity:1;" d="M 441.042969 196.085938 L 443.058594 196.085938 L 443.058594 189.132812 L 440.867188 189.574219 L 440.867188 188.449219 L 443.046875 188.011719 L 444.277344 188.011719 L 444.277344 196.085938 L 446.292969 196.085938 L 446.292969 197.125 L 441.042969 197.125 Z M 441.042969 196.085938 "/>
<path style=" stroke:none;fill-rule:nonzero;fill:rgb(0%,0%,0%);fill-opacity:1;" d="M 451.417969 188.824219 C 450.785156 188.824219 450.308594 189.136719 449.988281 189.761719 C 449.667969 190.382812 449.507812 191.324219 449.507812 192.578125 C 449.507812 193.824219 449.667969 194.761719 449.988281 195.386719 C 450.308594 196.011719 450.785156 196.324219 451.417969 196.324219 C 452.058594 196.324219 452.539062 196.011719 452.855469 195.386719 C 453.175781 194.761719 453.335938 193.824219 453.335938 192.578125 C 453.335938 191.324219 453.175781 190.382812 452.855469 189.761719 C 452.539062 189.136719 452.058594 188.824219 451.417969 188.824219 Z M 451.417969 187.847656 C 452.441406 187.847656 453.222656 188.25 453.761719 189.058594 C 454.300781 189.867188 454.570312 191.039062 454.570312 192.578125 C 454.570312 194.109375 454.300781 195.28125 453.761719 196.089844 C 453.222656 196.898438 452.441406 197.300781 451.417969 197.300781 C 450.398438 197.300781 449.617188 196.898438 449.078125 196.089844 C 448.539062 195.28125 448.269531 194.109375 448.269531 192.578125 C 448.269531 191.039062 448.539062 189.867188 449.078125 189.058594 C 449.617188 188.25 450.398438 187.847656 451.417969 187.847656 Z M 451.417969 187.847656 "/>
<path style=" stroke:none;fill-rule:nonzero;fill:rgb(0%,0%,0%);fill-opacity:1;" d="M 459.371094 188.824219 C 458.738281 188.824219 458.261719 189.136719 457.941406 189.761719 C 457.621094 190.382812 457.460938 191.324219 457.460938 192.578125 C 457.460938 193.824219 457.621094 194.761719 457.941406 195.386719 C 458.261719 196.011719 458.738281 196.324219 459.371094 196.324219 C 460.011719 196.324219 460.492188 196.011719 460.808594 195.386719 C 461.128906 194.761719 461.289062 193.824219 461.289062 192.578125 C 461.289062 191.324219 461.128906 190.382812 460.808594 189.761719 C 460.492188 189.136719 460.011719 188.824219 459.371094 188.824219 Z M 459.371094 187.847656 C 460.394531 187.847656 461.175781 188.25 461.714844 189.058594 C 462.253906 189.867188 462.523438 191.039062 462.523438 192.578125 C 462.523438 194.109375 462.253906 195.28125 461.714844 196.089844 C 461.175781 196.898438 460.394531 197.300781 459.371094 197.300781 C 458.351562 197.300781 457.570312 196.898438 457.03125 196.089844 C 456.492188 195.28125 456.222656 194.109375 456.222656 192.578125 C 456.222656 191.039062 456.492188 189.867188 457.03125 189.058594 C 457.570312 188.25 458.351562 187.847656 459.371094 187.847656 Z M 459.371094 187.847656 "/>
<g clip-path="url(#clip7)" clip-rule="nonzero">
<path style="fill:none;stroke-width:0.8;stroke-linecap:square;stroke-linejoin:round;stroke:rgb(69.019608%,69.019608%,69.019608%);stroke-opacity:1;stroke-miterlimit:4;" d="M 38.484375 136.928125 L 373.284375 136.928125 " transform="matrix(1.25,0,0,1.25,0,0.000000000000014211)"/>
</g>
<path style="fill:none;stroke-width:0.8;stroke-linecap:butt;stroke-linejoin:round;stroke:rgb(0%,0%,0%);stroke-opacity:1;stroke-miterlimit:4;" d="M 0.001562 0.000022 L -3.498438 0.000022 " transform="matrix(1.25,0,0,1.25,48.103516,171.160129)"/>
<path style=" stroke:none;fill-rule:nonzero;fill:rgb(0%,0%,0%);fill-opacity:1;" d="M 10.324219 171.472656 L 18.148438 171.472656 L 18.148438 172.507812 L 10.324219 172.507812 Z M 10.324219 171.472656 "/>
<path style=" stroke:none;fill-rule:nonzero;fill:rgb(0%,0%,0%);fill-opacity:1;" d="M 21.023438 174.871094 L 23.039062 174.871094 L 23.039062 167.917969 L 20.847656 168.359375 L 20.847656 167.234375 L 23.027344 166.796875 L 24.257812 166.796875 L 24.257812 174.871094 L 26.273438 174.871094 L 26.273438 175.910156 L 21.023438 175.910156 Z M 21.023438 174.871094 "/>
<path style=" stroke:none;fill-rule:nonzero;fill:rgb(0%,0%,0%);fill-opacity:1;" d="M 28.761719 174.359375 L 30.050781 174.359375 L 30.050781 175.910156 L 28.761719 175.910156 Z M 28.761719 174.359375 "/>
<path style=" stroke:none;fill-rule:nonzero;fill:rgb(0%,0%,0%);fill-opacity:1;" d="M 35.371094 167.609375 C 34.738281 167.609375 34.261719 167.921875 33.941406 168.546875 C 33.621094 169.167969 33.460938 170.109375 33.460938 171.363281 C 33.460938 172.609375 33.621094 173.546875 33.941406 174.171875 C 34.261719 174.796875 34.738281 175.109375 35.371094 175.109375 C 36.011719 175.109375 36.492188 174.796875 36.808594 174.171875 C 37.128906 173.546875 37.289062 172.609375 37.289062 171.363281 C 37.289062 170.109375 37.128906 169.167969 36.808594 168.546875 C 36.492188 167.921875 36.011719 167.609375 35.371094 167.609375 Z M 35.371094 166.632812 C 36.394531 166.632812 37.175781 167.035156 37.714844 167.84375 C 38.253906 168.652344 38.523438 169.824219 38.523438 171.363281 C 38.523438 172.894531 38.253906 174.066406 37.714844 174.875 C 37.175781 175.683594 36.394531 176.085938 35.371094 176.085938 C 34.351562 176.085938 33.570312 175.683594 33.03125 174.875 C 32.492188 174.066406 32.222656 172.894531 32.222656 171.363281 C 32.222656 169.824219 32.492188 168.652344 33.03125 167.84375 C 33.570312 167.035156 34.351562 166.632812 35.371094 166.632812 Z M 35.371094 166.632812 "/>
<g clip-path="url(#clip8)" clip-rule="nonzero">
<path style="fill:none;stroke-width:0.8;stroke-linecap:square;stroke-linejoin:round;stroke:rgb(69.019608%,69.019608%,69.019608%);stroke-opacity:1;stroke-miterlimit:4;" d="M 38.484375 106.040625 L 373.284375 106.040625 " transform="matrix(1.25,0,0,1.25,0,0.000000000000014211)"/>
</g>
<path style="fill:none;stroke-width:0.8;stroke-linecap:butt;stroke-linejoin:round;stroke:rgb(0%,0%,0%);stroke-opacity:1;stroke-miterlimit:4;" d="M 0.001562 0.000229 L -3.498438 0.000229 " transform="matrix(1.25,0,0,1.25,48.103516,132.550495)"/>
<path style=" stroke:none;fill-rule:nonzero;fill:rgb(0%,0%,0%);fill-opacity:1;" d="M 10.324219 132.863281 L 18.148438 132.863281 L 18.148438 133.898438 L 10.324219 133.898438 Z M 10.324219 132.863281 "/>
<path style=" stroke:none;fill-rule:nonzero;fill:rgb(0%,0%,0%);fill-opacity:1;" d="M 23.445312 129 C 22.8125 129 22.335938 129.3125 22.015625 129.9375 C 21.695312 130.558594 21.535156 131.5 21.535156 132.753906 C 21.535156 134 21.695312 134.9375 22.015625 135.5625 C 22.335938 136.1875 22.8125 136.5 23.445312 136.5 C 24.085938 136.5 24.566406 136.1875 24.882812 135.5625 C 25.203125 134.9375 25.363281 134 25.363281 132.753906 C 25.363281 131.5 25.203125 130.558594 24.882812 129.9375 C 24.566406 129.3125 24.085938 129 23.445312 129 Z M 23.445312 128.023438 C 24.46875 128.023438 25.25 128.425781 25.789062 129.234375 C 26.328125 130.042969 26.597656 131.214844 26.597656 132.753906 C 26.597656 134.285156 26.328125 135.457031 25.789062 136.265625 C 25.25 137.074219 24.46875 137.476562 23.445312 137.476562 C 22.425781 137.476562 21.644531 137.074219 21.105469 136.265625 C 20.566406 135.457031 20.296875 134.285156 20.296875 132.753906 C 20.296875 131.214844 20.566406 130.042969 21.105469 129.234375 C 21.644531 128.425781 22.425781 128.023438 23.445312 128.023438 Z M 23.445312 128.023438 "/>
<path style=" stroke:none;fill-rule:nonzero;fill:rgb(0%,0%,0%);fill-opacity:1;" d="M 28.761719 135.75 L 30.050781 135.75 L 30.050781 137.300781 L 28.761719 137.300781 Z M 28.761719 135.75 "/>
<path style=" stroke:none;fill-rule:nonzero;fill:rgb(0%,0%,0%);fill-opacity:1;" d="M 32.75 128.1875 L 37.589844 128.1875 L 37.589844 129.226562 L 33.878906 129.226562 L 33.878906 131.457031 C 34.058594 131.398438 34.234375 131.351562 34.414062 131.320312 C 34.59375 131.292969 34.773438 131.277344 34.953125 131.277344 C 35.96875 131.277344 36.773438 131.554688 37.367188 132.113281 C 37.964844 132.667969 38.261719 133.425781 38.261719 134.375 C 38.261719 135.355469 37.957031 136.117188 37.34375 136.664062 C 36.734375 137.207031 35.875 137.476562 34.761719 137.476562 C 34.378906 137.476562 33.992188 137.445312 33.59375 137.378906 C 33.199219 137.316406 32.789062 137.21875 32.363281 137.085938 L 32.363281 135.847656 C 32.730469 136.046875 33.109375 136.195312 33.5 136.292969 C 33.890625 136.390625 34.304688 136.4375 34.738281 136.4375 C 35.441406 136.4375 36 136.253906 36.410156 135.882812 C 36.820312 135.515625 37.027344 135.011719 37.027344 134.375 C 37.027344 133.742188 36.820312 133.238281 36.410156 132.871094 C 36 132.5 35.441406 132.3125 34.738281 132.3125 C 34.410156 132.3125 34.078125 132.351562 33.75 132.421875 C 33.425781 132.496094 33.089844 132.609375 32.75 132.765625 Z M 32.75 128.1875 "/>
<g clip-path="url(#clip9)" clip-rule="nonzero">
<path style="fill:none;stroke-width:0.8;stroke-linecap:square;stroke-linejoin:round;stroke:rgb(69.019608%,69.019608%,69.019608%);stroke-opacity:1;stroke-miterlimit:4;" d="M 38.484375 75.153125 L 373.284375 75.153125 " transform="matrix(1.25,0,0,1.25,0,0.000000000000014211)"/>
</g>
<path style="fill:none;stroke-width:0.8;stroke-linecap:butt;stroke-linejoin:round;stroke:rgb(0%,0%,0%);stroke-opacity:1;stroke-miterlimit:4;" d="M 0.001562 0.000437 L -3.498438 0.000437 " transform="matrix(1.25,0,0,1.25,48.103516,93.94086)"/>
<path style=" stroke:none;fill-rule:nonzero;fill:rgb(0%,0%,0%);fill-opacity:1;" d="M 23.449219 90.390625 C 22.8125 90.390625 22.335938 90.703125 22.015625 91.328125 C 21.695312 91.949219 21.539062 92.890625 21.539062 94.144531 C 21.539062 95.390625 21.695312 96.328125 22.015625 96.953125 C 22.335938 97.578125 22.8125 97.890625 23.449219 97.890625 C 24.085938 97.890625 24.566406 97.578125 24.886719 96.953125 C 25.207031 96.328125 25.367188 95.390625 25.367188 94.144531 C 25.367188 92.890625 25.207031 91.949219 24.886719 91.328125 C 24.566406 90.703125 24.085938 90.390625 23.449219 90.390625 Z M 23.449219 89.414062 C 24.46875 89.414062 25.25 89.816406 25.789062 90.625 C 26.328125 91.433594 26.597656 92.605469 26.597656 94.144531 C 26.597656 95.675781 26.328125 96.847656 25.789062 97.65625 C 25.25 98.464844 24.46875 98.867188 23.449219 98.867188 C 22.425781 98.867188 21.648438 98.464844 21.109375 97.65625 C 20.570312 96.847656 20.300781 95.675781 20.300781 94.144531 C 20.300781 92.605469 20.570312 91.433594 21.109375 90.625 C 21.648438 89.816406 22.425781 89.414062 23.449219 89.414062 Z M 23.449219 89.414062 "/>
<path style=" stroke:none;fill-rule:nonzero;fill:rgb(0%,0%,0%);fill-opacity:1;" d="M 28.761719 97.140625 L 30.050781 97.140625 L 30.050781 98.691406 L 28.761719 98.691406 Z M 28.761719 97.140625 "/>
<path style=" stroke:none;fill-rule:nonzero;fill:rgb(0%,0%,0%);fill-opacity:1;" d="M 35.375 90.390625 C 34.738281 90.390625 34.261719 90.703125 33.941406 91.328125 C 33.621094 91.949219 33.464844 92.890625 33.464844 94.144531 C 33.464844 95.390625 33.621094 96.328125 33.941406 96.953125 C 34.261719 97.578125 34.738281 97.890625 35.375 97.890625 C 36.011719 97.890625 36.492188 97.578125 36.8125 96.953125 C 37.132812 96.328125 37.292969 95.390625 37.292969 94.144531 C 37.292969 92.890625 37.132812 91.949219 36.8125 91.328125 C 36.492188 90.703125 36.011719 90.390625 35.375 90.390625 Z M 35.375 89.414062 C 36.394531 89.414062 37.175781 89.816406 37.714844 90.625 C 38.253906 91.433594 38.523438 92.605469 38.523438 94.144531 C 38.523438 95.675781 38.253906 96.847656 37.714844 97.65625 C 37.175781 98.464844 36.394531 98.867188 35.375 98.867188 C 34.351562 98.867188 33.574219 98.464844 33.035156 97.65625 C 32.496094 96.847656 32.226562 95.675781 32.226562 94.144531 C 32.226562 92.605469 32.496094 91.433594 33.035156 90.625 C 33.574219 89.816406 34.351562 89.414062 35.375 89.414062 Z M 35.375 89.414062 "/>
<g clip-path="url(#clip10)" clip-rule="nonzero">
<path style="fill:none;stroke-width:0.8;stroke-linecap:square;stroke-linejoin:round;stroke:rgb(69.019608%,69.019608%,69.019608%);stroke-opacity:1;stroke-miterlimit:4;" d="M 38.484375 44.265625 L 373.284375 44.265625 " transform="matrix(1.25,0,0,1.25,0,0.000000000000014211)"/>
</g>
<path style="fill:none;stroke-width:0.8;stroke-linecap:butt;stroke-linejoin:round;stroke:rgb(0%,0%,0%);stroke-opacity:1;stroke-miterlimit:4;" d="M 0.001562 0.000645 L -3.498438 0.000645 " transform="matrix(1.25,0,0,1.25,48.103516,55.331225)"/>
<path style=" stroke:none;fill-rule:nonzero;fill:rgb(0%,0%,0%);fill-opacity:1;" d="M 23.449219 51.78125 C 22.8125 51.78125 22.335938 52.09375 22.015625 52.71875 C 21.695312 53.339844 21.539062 54.28125 21.539062 55.535156 C 21.539062 56.78125 21.695312 57.71875 22.015625 58.34375 C 22.335938 58.96875 22.8125 59.28125 23.449219 59.28125 C 24.085938 59.28125 24.566406 58.96875 24.886719 58.34375 C 25.207031 57.71875 25.367188 56.78125 25.367188 55.535156 C 25.367188 54.28125 25.207031 53.339844 24.886719 52.71875 C 24.566406 52.09375 24.085938 51.78125 23.449219 51.78125 Z M 23.449219 50.804688 C 24.46875 50.804688 25.25 51.207031 25.789062 52.015625 C 26.328125 52.824219 26.597656 53.996094 26.597656 55.535156 C 26.597656 57.066406 26.328125 58.238281 25.789062 59.046875 C 25.25 59.855469 24.46875 60.257812 23.449219 60.257812 C 22.425781 60.257812 21.648438 59.855469 21.109375 59.046875 C 20.570312 58.238281 20.300781 57.066406 20.300781 55.535156 C 20.300781 53.996094 20.570312 52.824219 21.109375 52.015625 C 21.648438 51.207031 22.425781 50.804688 23.449219 50.804688 Z M 23.449219 50.804688 "/>
<path style=" stroke:none;fill-rule:nonzero;fill:rgb(0%,0%,0%);fill-opacity:1;" d="M 28.761719 58.53125 L 30.050781 58.53125 L 30.050781 60.082031 L 28.761719 60.082031 Z M 28.761719 58.53125 "/>
<path style=" stroke:none;fill-rule:nonzero;fill:rgb(0%,0%,0%);fill-opacity:1;" d="M 32.75 50.96875 L 37.589844 50.96875 L 37.589844 52.007812 L 33.878906 52.007812 L 33.878906 54.238281 C 34.058594 54.175781 34.234375 54.132812 34.414062 54.101562 C 34.59375 54.070312 34.773438 54.058594 34.953125 54.058594 C 35.96875 54.058594 36.777344 54.335938 37.371094 54.894531 C 37.964844 55.449219 38.261719 56.203125 38.261719 57.15625 C 38.261719 58.136719 37.957031 58.898438 37.347656 59.445312 C 36.734375 59.988281 35.875 60.257812 34.765625 60.257812 C 34.382812 60.257812 33.992188 60.226562 33.59375 60.160156 C 33.199219 60.09375 32.789062 59.996094 32.367188 59.867188 L 32.367188 58.628906 C 32.730469 58.828125 33.109375 58.976562 33.5 59.074219 C 33.890625 59.171875 34.304688 59.21875 34.738281 59.21875 C 35.441406 59.21875 36 59.035156 36.410156 58.664062 C 36.820312 58.292969 37.027344 57.792969 37.027344 57.15625 C 37.027344 56.523438 36.820312 56.019531 36.410156 55.652344 C 36 55.28125 35.441406 55.09375 34.738281 55.09375 C 34.410156 55.09375 34.082031 55.128906 33.753906 55.203125 C 33.425781 55.277344 33.089844 55.390625 32.75 55.546875 Z M 32.75 50.96875 "/>
<g clip-path="url(#clip11)" clip-rule="nonzero">
<path style="fill:none;stroke-width:0.8;stroke-linecap:square;stroke-linejoin:round;stroke:rgb(69.019608%,69.019608%,69.019608%);stroke-opacity:1;stroke-miterlimit:4;" d="M 38.484375 13.378125 L 373.284375 13.378125 " transform="matrix(1.25,0,0,1.25,0,0.000000000000014211)"/>
</g>
<path style="fill:none;stroke-width:0.8;stroke-linecap:butt;stroke-linejoin:round;stroke:rgb(0%,0%,0%);stroke-opacity:1;stroke-miterlimit:4;" d="M 0.001562 0.000852 L -3.498438 0.000852 " transform="matrix(1.25,0,0,1.25,48.103516,16.721591)"/>
<path style=" stroke:none;fill-rule:nonzero;fill:rgb(0%,0%,0%);fill-opacity:1;" d="M 21.027344 20.433594 L 23.039062 20.433594 L 23.039062 13.480469 L 20.847656 13.917969 L 20.847656 12.796875 L 23.027344 12.355469 L 24.261719 12.355469 L 24.261719 20.433594 L 26.273438 20.433594 L 26.273438 21.46875 L 21.027344 21.46875 Z M 21.027344 20.433594 "/>
<path style=" stroke:none;fill-rule:nonzero;fill:rgb(0%,0%,0%);fill-opacity:1;" d="M 28.761719 19.917969 L 30.050781 19.917969 L 30.050781 21.46875 L 28.761719 21.46875 Z M 28.761719 19.917969 "/>
<path style=" stroke:none;fill-rule:nonzero;fill:rgb(0%,0%,0%);fill-opacity:1;" d="M 35.375 13.167969 C 34.738281 13.167969 34.261719 13.480469 33.941406 14.105469 C 33.621094 14.730469 33.464844 15.667969 33.464844 16.921875 C 33.464844 18.171875 33.621094 19.109375 33.941406 19.734375 C 34.261719 20.359375 34.738281 20.671875 35.375 20.671875 C 36.011719 20.671875 36.492188 20.359375 36.8125 19.734375 C 37.132812 19.109375 37.292969 18.171875 37.292969 16.921875 C 37.292969 15.667969 37.132812 14.730469 36.8125 14.105469 C 36.492188 13.480469 36.011719 13.167969 35.375 13.167969 Z M 35.375 12.191406 C 36.394531 12.191406 37.175781 12.597656 37.714844 13.40625 C 38.253906 14.214844 38.523438 15.386719 38.523438 16.921875 C 38.523438 18.457031 38.253906 19.628906 37.714844 20.4375 C 37.175781 21.246094 36.394531 21.648438 35.375 21.648438 C 34.351562 21.648438 33.574219 21.246094 33.035156 20.4375 C 32.496094 19.628906 32.226562 18.457031 32.226562 16.921875 C 32.226562 15.386719 32.496094 14.214844 33.035156 13.40625 C 33.574219 12.597656 34.351562 12.191406 35.375 12.191406 Z M 35.375 12.191406 "/>
<path style="fill:none;stroke-width:1.5;stroke-linecap:square;stroke-linejoin:round;stroke:rgb(12.156863%,46.666667%,70.588235%);stroke-opacity:1;stroke-miterlimit:4;" d="M 53.7 75.153125 L 56.775 65.403125 L 59.85 55.896875 L 62.925 46.875 L 66 38.559375 L 69.071875 31.165625 L 72.146875 24.86875 L 75.221875 19.8375 L 78.296875 16.190625 L 81.371875 14.01875 L 84.44375 13.384375 L 87.51875 14.29375 L 90.59375 16.73125 L 93.66875 20.634375 L 96.74375 25.903125 L 99.815625 32.403125 L 102.890625 39.978125 L 105.965625 48.434375 L 109.040625 57.559375 L 112.115625 67.125 L 115.1875 76.89375 L 118.2625 86.61875 L 121.3375 96.05625 L 124.4125 104.96875 L 127.4875 113.134375 L 130.559375 120.346875 L 133.634375 126.428125 L 136.709375 131.221875 L 139.784375 134.6125 L 142.859375 136.5125 L 145.93125 136.871875 L 149.00625 135.6875 L 152.08125 132.984375 L 155.15625 128.83125 L 158.23125 123.334375 L 161.303125 116.628125 L 164.378125 108.88125 L 167.453125 100.290625 L 170.528125 91.06875 L 173.603125 81.45 L 176.675 71.671875 L 179.75 61.98125 L 182.825 52.61875 L 185.9 43.825 L 188.975 35.8125 L 192.046875 28.790625 L 195.121875 22.928125 L 198.196875 18.375 L 201.271875 15.24375 L 204.346875 13.615625 L 207.41875 13.53125 L 210.49375 14.990625 L 213.56875 17.95625 L 216.64375 22.35625 L 219.71875 28.08125 L 222.790625 34.984375 L 225.865625 42.896875 L 228.940625 51.615625 L 232.015625 60.925 L 235.090625 70.590625 L 238.1625 80.371875 L 241.2375 90.021875 L 244.3125 99.296875 L 247.3875 107.96875 L 250.4625 115.81875 L 253.534375 122.646875 L 256.609375 128.2875 L 259.684375 132.59375 L 262.759375 135.4625 L 265.834375 136.81875 L 268.90625 136.628125 L 271.98125 134.896875 L 275.05625 131.66875 L 278.13125 127.021875 L 281.20625 121.078125 L 284.278125 113.98125 L 287.353125 105.9125 L 290.428125 97.06875 L 293.503125 87.68125 L 296.578125 77.975 L 299.65 68.2 L 302.725 58.6 L 305.8 49.415625 L 308.875 40.875 L 311.95 33.190625 L 315.021875 26.5625 L 318.096875 21.15 L 321.171875 17.09375 L 324.246875 14.490625 L 327.321875 13.409375 L 330.39375 13.875 L 333.46875 15.875 L 336.54375 19.3625 L 339.61875 24.25 L 342.69375 30.4125 L 345.765625 37.69375 L 348.840625 45.915625 L 351.915625 54.871875 L 354.990625 64.334375 L 358.065625 74.071875 " transform="matrix(1.25,0,0,1.25,0,0.000000000000014211)"/>
<path style="fill:none;stroke-width:1.5;stroke-linecap:square;stroke-linejoin:round;stroke:rgb(100%,49.803922%,5.490196%);stroke-opacity:1;stroke-miterlimit:4;" d="M 53.7 13.378125 L 56.775 14.15 L 59.85 16.45625 L 62.925 20.228125 L 66 25.38125 L 69.071875 31.78125 L 72.146875 39.265625 L 75.221875 47.653125 L 78.296875 56.728125 L 81.371875 66.2625 L 84.44375 76.025 L 87.51875 85.7625 L 90.59375 95.234375 L 93.66875 104.203125 L 96.74375 112.44375 L 99.815625 119.746875 L 102.890625 125.9375 L 105.965625 130.85 L 109.040625 134.36875 L 112.115625 136.403125 L 115.1875 136.903125 L 118.2625 135.85625 L 121.3375 133.284375 L 124.4125 129.25625 L 127.4875 123.871875 L 130.559375 117.26875 L 133.634375 109.60625 L 136.709375 101.084375 L 139.784375 91.909375 L 142.859375 82.315625 L 145.93125 72.540625 L 149.00625 62.83125 L 152.08125 53.434375 L 155.15625 44.578125 L 158.23125 36.490625 L 161.303125 29.36875 L 164.378125 23.396875 L 167.453125 18.721875 L 170.528125 15.4625 L 173.603125 13.7 L 176.675 13.475 L 179.75 14.796875 L 182.825 17.634375 L 185.9 21.909375 L 188.975 27.521875 L 192.046875 34.328125 L 195.121875 42.15625 L 198.196875 50.8125 L 201.271875 60.078125 L 204.346875 69.721875 L 207.41875 79.503125 L 210.49375 89.175 L 213.56875 98.49375 L 216.64375 107.228125 L 219.71875 115.159375 L 222.790625 122.0875 L 225.865625 127.8375 L 228.940625 132.26875 L 232.015625 135.26875 L 235.090625 136.759375 L 238.1625 136.70625 L 241.2375 135.1125 L 244.3125 132.0125 L 247.3875 127.490625 L 250.4625 121.65625 L 253.534375 114.653125 L 256.609375 106.6625 L 259.684375 97.88125 L 262.759375 88.53125 L 265.834375 78.846875 L 268.90625 69.065625 L 271.98125 59.440625 L 275.05625 50.209375 L 278.13125 41.6 L 281.20625 33.834375 L 284.278125 27.10625 L 287.353125 21.578125 L 290.428125 17.396875 L 293.503125 14.659375 L 296.578125 13.440625 L 299.65 13.76875 L 302.725 15.6375 L 305.8 18.99375 L 308.875 23.759375 L 311.95 29.815625 L 315.021875 37.00625 L 318.096875 45.153125 L 321.171875 54.05 L 324.246875 63.478125 L 327.321875 73.2 L 330.39375 82.96875 L 333.46875 92.54375 L 336.54375 101.68125 L 339.61875 110.153125 L 342.69375 117.746875 L 345.765625 124.275 L 348.840625 129.571875 L 351.915625 133.503125 L 354.990625 135.975 L 358.065625 136.91875 " transform="matrix(1.25,0,0,1.25,0,0.000000000000014211)"/>
<path style="fill:none;stroke-width:1.5;stroke-linecap:square;stroke-linejoin:round;stroke:rgb(17.254902%,62.745098%,17.254902%);stroke-opacity:1;stroke-miterlimit:4;" d="M 53.7 75.153125 L 56.775 71.25625 L 59.85 67.378125 L 62.925 63.528125 L 66 59.728125 L 69.071875 55.984375 L 72.146875 52.321875 L 75.221875 48.746875 L 78.296875 45.278125 L 81.371875 41.928125 L 84.44375 38.709375 L 87.51875 35.6375 L 90.59375 32.721875 L 93.66875 29.975 L 96.74375 27.409375 L 99.815625 25.03125 L 102.890625 22.85625 L 105.965625 20.884375 L 109.040625 19.13125 L 112.115625 17.603125 L 115.1875 16.3 L 118.2625 15.234375 L 121.3375 14.40625 L 124.4125 13.81875 L 127.4875 13.475 L 130.559375 13.378125 L 133.634375 13.528125 L 136.709375 13.921875 L 139.784375 14.559375 L 142.859375 15.4375 L 145.93125 16.553125 L 149.00625 17.903125 L 152.08125 19.48125 L 155.15625 21.278125 L 158.23125 23.29375 L 161.303125 25.5125 L 164.378125 27.93125 L 167.453125 30.534375 L 170.528125 33.31875 L 173.603125 36.26875 L 176.675 39.371875 L 179.75 42.61875 L 182.825 45.99375 L 185.9 49.484375 L 188.975 53.08125 L 192.046875 56.7625 L 195.121875 60.515625 L 198.196875 64.33125 L 201.271875 68.1875 L 204.346875 72.071875 L 207.41875 75.96875 L 210.49375 79.859375 L 213.56875 83.734375 L 216.64375 87.575 L 219.71875 91.365625 L 222.790625 95.09375 L 225.865625 98.740625 L 228.940625 102.29375 L 232.015625 105.7375 L 235.090625 109.0625 L 238.1625 112.25 L 241.2375 115.290625 L 244.3125 118.171875 L 247.3875 120.88125 L 250.4625 123.409375 L 253.534375 125.746875 L 256.609375 127.88125 L 259.684375 129.803125 L 262.759375 131.5125 L 265.834375 132.99375 L 268.90625 134.246875 L 271.98125 135.265625 L 275.05625 136.04375 L 278.13125 136.578125 L 281.20625 136.86875 L 284.278125 136.915625 L 287.353125 136.715625 L 290.428125 136.271875 L 293.503125 135.58125 L 296.578125 134.653125 L 299.65 133.4875 L 302.725 132.090625 L 305.8 130.465625 L 308.875 128.621875 L 311.95 126.565625 L 315.021875 124.303125 L 318.096875 121.846875 L 321.171875 119.203125 L 324.246875 116.384375 L 327.321875 113.4 L 330.39375 110.265625 L 333.46875 106.990625 L 336.54375 103.590625 L 339.61875 100.075 L 342.69375 96.4625 L 345.765625 92.7625 L 348.840625 88.99375 L 351.915625 85.171875 L 354.990625 81.309375 L 358.065625 77.41875 " transform="matrix(1.25,0,0,1.25,0,0.000000000000014211)"/>
<path style="fill:none;stroke-width:1.5;stroke-linecap:square;stroke-linejoin:round;stroke:rgb(83.921569%,15.294118%,15.686275%);stroke-opacity:1;stroke-miterlimit:4;" d="M 53.7 13.378125 L 56.775 13.5 L 59.85 13.86875 L 62.925 14.48125 L 66 15.334375 L 69.071875 16.425 L 72.146875 17.75 L 75.221875 19.30625 L 78.296875 21.08125 L 81.371875 23.071875 L 84.44375 25.271875 L 87.51875 27.66875 L 90.59375 30.253125 L 93.66875 33.01875 L 96.74375 35.953125 L 99.815625 39.040625 L 102.890625 42.271875 L 105.965625 45.634375 L 109.040625 49.115625 L 112.115625 52.7 L 115.1875 56.371875 L 118.2625 60.121875 L 121.3375 63.928125 L 124.4125 67.78125 L 127.4875 71.665625 L 130.559375 75.559375 L 133.634375 79.453125 L 136.709375 83.33125 L 139.784375 87.175 L 142.859375 90.971875 L 145.93125 94.70625 L 149.00625 98.3625 L 152.08125 101.925 L 155.15625 105.384375 L 158.23125 108.71875 L 161.303125 111.921875 L 164.378125 114.98125 L 167.453125 117.878125 L 170.528125 120.60625 L 173.603125 123.153125 L 176.675 125.509375 L 179.75 127.665625 L 182.825 129.6125 L 185.9 131.34375 L 188.975 132.85 L 192.046875 134.128125 L 195.121875 135.16875 L 198.196875 135.971875 L 201.271875 136.534375 L 204.346875 136.85 L 207.41875 136.921875 L 210.49375 136.746875 L 213.56875 136.328125 L 216.64375 135.665625 L 219.71875 134.7625 L 222.790625 133.621875 L 225.865625 132.246875 L 228.940625 130.646875 L 232.015625 128.825 L 235.090625 126.790625 L 238.1625 124.55 L 241.2375 122.1125 L 244.3125 119.4875 L 247.3875 116.6875 L 250.4625 113.721875 L 253.534375 110.6 L 256.609375 107.340625 L 259.684375 103.95 L 262.759375 100.446875 L 265.834375 96.84375 L 268.90625 93.153125 L 271.98125 89.390625 L 275.05625 85.571875 L 278.13125 81.7125 L 281.20625 77.828125 L 284.278125 73.93125 L 287.353125 70.0375 L 290.428125 66.165625 L 293.503125 62.33125 L 296.578125 58.546875 L 299.65 54.828125 L 302.725 51.190625 L 305.8 47.646875 L 308.875 44.2125 L 311.95 40.903125 L 315.021875 37.73125 L 318.096875 34.70625 L 321.171875 31.840625 L 324.246875 29.15 L 327.321875 26.64375 L 330.39375 24.328125 L 333.46875 22.215625 L 336.54375 20.3125 L 339.61875 18.628125 L 342.69375 17.16875 L 345.765625 15.940625 L 348.840625 14.946875 L 351.915625 14.19375 L 354.990625 13.684375 L 358.065625 13.41875 " transform="matrix(1.25,0,0,1.25,0,0.000000000000014211)"/>
<path style="fill:none;stroke-width:0.8;stroke-linecap:square;stroke-linejoin:miter;stroke:rgb(0%,0%,0%);stroke-opacity:1;stroke-miterlimit:4;" d="M 38.484375 143.1 L 38.484375 7.2 " transform="matrix(1.25,0,0,1.25,0,0.000000000000014211)"/>
<path style="fill:none;stroke-width:0.8;stroke-linecap:square;stroke-linejoin:miter;stroke:rgb(0%,0%,0%);stroke-opacity:1;stroke-miterlimit:4;" d="M 373.284375 143.1 L 373.284375 7.2 " transform="matrix(1.25,0,0,1.25,0,0.000000000000014211)"/>
<path style="fill:none;stroke-width:0.8;stroke-linecap:square;stroke-linejoin:miter;stroke:rgb(0%,0%,0%);stroke-opacity:1;stroke-miterlimit:4;" d="M 38.484375 143.1 L 373.28125 143.1 " transform="matrix(1.25,0,0,1.25,0,0.000000000000014211)"/>
<path style="fill:none;stroke-width:0.8;stroke-linecap:square;stroke-linejoin:miter;stroke:rgb(0%,0%,0%);stroke-opacity:1;stroke-miterlimit:4;" d="M 38.484375 7.2 L 373.28125 7.2 " transform="matrix(1.25,0,0,1.25,0,0.000000000000014211)"/>
<use xlink:href="#surface6" mask="url(#mask0)"/>
<path style="fill:none;stroke-width:1.5;stroke-linecap:square;stroke-linejoin:round;stroke:rgb(12.156863%,46.666667%,70.588235%);stroke-opacity:1;stroke-miterlimit:4;" d="M 47.484375 84.4875 L 67.48125 84.4875 " transform="matrix(1.25,0,0,1.25,0,0.000000000000014211)"/>
<path style=" stroke:none;fill-rule:nonzero;fill:rgb(0%,0%,0%);fill-opacity:1;" d="M 100.027344 104.183594 L 100.027344 100.484375 L 101.152344 100.484375 L 101.152344 109.984375 L 100.027344 109.984375 L 100.027344 108.957031 C 99.792969 109.363281 99.496094 109.664062 99.132812 109.863281 C 98.773438 110.0625 98.34375 110.160156 97.835938 110.160156 C 97.011719 110.160156 96.339844 109.832031 95.820312 109.171875 C 95.300781 108.511719 95.042969 107.644531 95.042969 106.570312 C 95.042969 105.496094 95.300781 104.628906 95.820312 103.972656 C 96.339844 103.3125 97.011719 102.984375 97.835938 102.984375 C 98.34375 102.984375 98.773438 103.082031 99.132812 103.28125 C 99.496094 103.476562 99.792969 103.777344 100.027344 104.183594 Z M 96.203125 106.570312 C 96.203125 107.394531 96.371094 108.042969 96.710938 108.515625 C 97.050781 108.984375 97.519531 109.21875 98.113281 109.21875 C 98.707031 109.21875 99.175781 108.984375 99.515625 108.515625 C 99.859375 108.042969 100.027344 107.394531 100.027344 106.570312 C 100.027344 105.746094 99.859375 105.097656 99.515625 104.628906 C 99.175781 104.15625 98.707031 103.921875 98.113281 103.921875 C 97.519531 103.921875 97.050781 104.15625 96.710938 104.628906 C 96.371094 105.097656 96.203125 105.746094 96.203125 106.570312 Z M 96.203125 106.570312 "/>
<path style=" stroke:none;fill-rule:nonzero;fill:rgb(0%,0%,0%);fill-opacity:1;" d="M 103.464844 103.148438 L 104.589844 103.148438 L 104.589844 109.984375 L 103.464844 109.984375 Z M 103.464844 100.484375 L 104.589844 100.484375 L 104.589844 101.910156 L 103.464844 101.910156 Z M 103.464844 100.484375 "/>
<path style=" stroke:none;fill-rule:nonzero;fill:rgb(0%,0%,0%);fill-opacity:1;" d="M 112.261719 104.460938 C 112.542969 103.953125 112.878906 103.582031 113.269531 103.34375 C 113.660156 103.101562 114.117188 102.984375 114.648438 102.984375 C 115.359375 102.984375 115.910156 103.230469 116.296875 103.730469 C 116.683594 104.226562 116.875 104.9375 116.875 105.855469 L 116.875 109.984375 L 115.746094 109.984375 L 115.746094 105.894531 C 115.746094 105.238281 115.628906 104.753906 115.398438 104.4375 C 115.164062 104.117188 114.8125 103.960938 114.335938 103.960938 C 113.753906 103.960938 113.292969 104.152344 112.957031 104.539062 C 112.617188 104.925781 112.449219 105.453125 112.449219 106.121094 L 112.449219 109.984375 L 111.320312 109.984375 L 111.320312 105.894531 C 111.320312 105.234375 111.207031 104.746094 110.972656 104.433594 C 110.742188 104.117188 110.382812 103.960938 109.898438 103.960938 C 109.324219 103.960938 108.867188 104.152344 108.53125 104.542969 C 108.191406 104.929688 108.023438 105.457031 108.023438 106.121094 L 108.023438 109.984375 L 106.894531 109.984375 L 106.894531 103.148438 L 108.023438 103.148438 L 108.023438 104.210938 C 108.28125 103.789062 108.589844 103.480469 108.945312 103.28125 C 109.304688 103.082031 109.730469 102.984375 110.222656 102.984375 C 110.71875 102.984375 111.140625 103.109375 111.488281 103.363281 C 111.835938 103.613281 112.09375 103.980469 112.261719 104.460938 Z M 112.261719 104.460938 "/>
<path style=" stroke:none;fill-rule:nonzero;fill:rgb(0%,0%,0%);fill-opacity:1;" d="M 126.636719 101.945312 L 123.523438 106.808594 L 126.636719 106.808594 Z M 126.3125 100.871094 L 127.863281 100.871094 L 127.863281 106.808594 L 129.164062 106.808594 L 129.164062 107.835938 L 127.863281 107.835938 L 127.863281 109.984375 L 126.636719 109.984375 L 126.636719 107.835938 L 122.523438 107.835938 L 122.523438 106.644531 Z M 126.3125 100.871094 "/>
<path style="fill:none;stroke-width:1.5;stroke-linecap:square;stroke-linejoin:round;stroke:rgb(100%,49.803922%,5.490196%);stroke-opacity:1;stroke-miterlimit:4;" d="M 47.484375 99.1625 L 67.48125 99.1625 " transform="matrix(1.25,0,0,1.25,0,0.000000000000014211)"/>
<path style=" stroke:none;fill-rule:nonzero;fill:rgb(0%,0%,0%);fill-opacity:1;" d="M 100.027344 122.53125 L 100.027344 118.832031 L 101.152344 118.832031 L 101.152344 128.328125 L 100.027344 128.328125 L 100.027344 127.304688 C 99.792969 127.710938 99.496094 128.011719 99.132812 128.210938 C 98.773438 128.410156 98.34375 128.507812 97.835938 128.507812 C 97.011719 128.507812 96.339844 128.179688 95.820312 127.519531 C 95.300781 126.859375 95.042969 125.992188 95.042969 124.917969 C 95.042969 123.84375 95.300781 122.976562 95.820312 122.316406 C 96.339844 121.660156 97.011719 121.328125 97.835938 121.328125 C 98.34375 121.328125 98.773438 121.429688 99.132812 121.625 C 99.496094 121.824219 99.792969 122.125 100.027344 122.53125 Z M 96.203125 124.917969 C 96.203125 125.742188 96.371094 126.390625 96.710938 126.859375 C 97.050781 127.332031 97.519531 127.566406 98.113281 127.566406 C 98.707031 127.566406 99.175781 127.332031 99.515625 126.859375 C 99.859375 126.390625 100.027344 125.742188 100.027344 124.917969 C 100.027344 124.09375 99.859375 123.445312 99.515625 122.972656 C 99.175781 122.503906 98.707031 122.269531 98.113281 122.269531 C 97.519531 122.269531 97.050781 122.503906 96.710938 122.972656 C 96.371094 123.445312 96.203125 124.09375 96.203125 124.917969 Z M 96.203125 124.917969 "/>
<path style=" stroke:none;fill-rule:nonzero;fill:rgb(0%,0%,0%);fill-opacity:1;" d="M 103.464844 121.492188 L 104.589844 121.492188 L 104.589844 128.328125 L 103.464844 128.328125 Z M 103.464844 118.832031 L 104.589844 118.832031 L 104.589844 120.253906 L 103.464844 120.253906 Z M 103.464844 118.832031 "/>
<path style=" stroke:none;fill-rule:nonzero;fill:rgb(0%,0%,0%);fill-opacity:1;" d="M 112.261719 122.804688 C 112.542969 122.300781 112.878906 121.929688 113.269531 121.6875 C 113.660156 121.449219 114.117188 121.328125 114.648438 121.328125 C 115.359375 121.328125 115.910156 121.578125 116.296875 122.078125 C 116.683594 122.574219 116.875 123.285156 116.875 124.203125 L 116.875 128.328125 L 115.746094 128.328125 L 115.746094 124.238281 C 115.746094 123.585938 115.628906 123.097656 115.398438 122.78125 C 115.164062 122.464844 114.8125 122.304688 114.335938 122.304688 C 113.753906 122.304688 113.292969 122.5 112.957031 122.886719 C 112.617188 123.273438 112.449219 123.796875 112.449219 124.464844 L 112.449219 128.328125 L 111.320312 128.328125 L 111.320312 124.238281 C 111.320312 123.582031 111.207031 123.09375 110.972656 122.777344 C 110.742188 122.464844 110.382812 122.304688 109.898438 122.304688 C 109.324219 122.304688 108.867188 122.5 108.53125 122.886719 C 108.191406 123.277344 108.023438 123.800781 108.023438 124.464844 L 108.023438 128.328125 L 106.894531 128.328125 L 106.894531 121.492188 L 108.023438 121.492188 L 108.023438 122.554688 C 108.28125 122.136719 108.589844 121.828125 108.945312 121.628906 C 109.304688 121.429688 109.730469 121.328125 110.222656 121.328125 C 110.71875 121.328125 111.140625 121.457031 111.488281 121.707031 C 111.835938 121.960938 112.09375 122.324219 112.261719 122.804688 Z M 112.261719 122.804688 "/>
<path style=" stroke:none;fill-rule:nonzero;fill:rgb(0%,0%,0%);fill-opacity:1;" d="M 123.261719 119.214844 L 128.101562 119.214844 L 128.101562 120.253906 L 124.390625 120.253906 L 124.390625 122.488281 C 124.566406 122.425781 124.746094 122.382812 124.925781 122.351562 C 125.105469 122.320312 125.285156 122.304688 125.464844 122.304688 C 126.480469 122.304688 127.285156 122.585938 127.878906 123.140625 C 128.476562 123.699219 128.773438 124.453125 128.773438 125.40625 C 128.773438 126.386719 128.46875 127.148438 127.855469 127.691406 C 127.246094 128.234375 126.386719 128.507812 125.273438 128.507812 C 124.890625 128.507812 124.5 128.476562 124.105469 128.410156 C 123.707031 128.34375 123.300781 128.246094 122.875 128.117188 L 122.875 126.875 C 123.242188 127.074219 123.621094 127.222656 124.011719 127.320312 C 124.402344 127.417969 124.8125 127.46875 125.25 127.46875 C 125.953125 127.46875 126.511719 127.285156 126.921875 126.914062 C 127.332031 126.542969 127.539062 126.042969 127.539062 125.40625 C 127.539062 124.773438 127.332031 124.269531 126.921875 123.898438 C 126.511719 123.527344 125.953125 123.34375 125.25 123.34375 C 124.917969 123.34375 124.589844 123.378906 124.261719 123.453125 C 123.9375 123.527344 123.601562 123.640625 123.261719 123.792969 Z M 123.261719 119.214844 "/>
<path style="fill:none;stroke-width:1.5;stroke-linecap:square;stroke-linejoin:round;stroke:rgb(17.254902%,62.745098%,17.254902%);stroke-opacity:1;stroke-miterlimit:4;" d="M 47.484375 113.84375 L 67.48125 113.84375 " transform="matrix(1.25,0,0,1.25,0,0.000000000000014211)"/>
<path style=" stroke:none;fill-rule:nonzero;fill:rgb(0%,0%,0%);fill-opacity:1;" d="M 100.027344 140.878906 L 100.027344 137.179688 L 101.152344 137.179688 L 101.152344 146.679688 L 100.027344 146.679688 L 100.027344 145.652344 C 99.792969 146.058594 99.496094 146.359375 99.132812 146.558594 C 98.773438 146.757812 98.34375 146.855469 97.835938 146.855469 C 97.011719 146.855469 96.339844 146.527344 95.820312 145.867188 C 95.300781 145.207031 95.042969 144.339844 95.042969 143.265625 C 95.042969 142.191406 95.300781 141.324219 95.820312 140.667969 C 96.339844 140.007812 97.011719 139.679688 97.835938 139.679688 C 98.34375 139.679688 98.773438 139.777344 99.132812 139.976562 C 99.496094 140.171875 99.792969 140.472656 100.027344 140.878906 Z M 96.203125 143.265625 C 96.203125 144.089844 96.371094 144.738281 96.710938 145.210938 C 97.050781 145.679688 97.519531 145.914062 98.113281 145.914062 C 98.707031 145.914062 99.175781 145.679688 99.515625 145.210938 C 99.859375 144.738281 100.027344 144.089844 100.027344 143.265625 C 100.027344 142.441406 99.859375 141.792969 99.515625 141.324219 C 99.175781 140.851562 98.707031 140.617188 98.113281 140.617188 C 97.519531 140.617188 97.050781 140.851562 96.710938 141.324219 C 96.371094 141.792969 96.203125 142.441406 96.203125 143.265625 Z M 96.203125 143.265625 "/>
<path style=" stroke:none;fill-rule:nonzero;fill:rgb(0%,0%,0%);fill-opacity:1;" d="M 103.464844 139.84375 L 104.589844 139.84375 L 104.589844 146.679688 L 103.464844 146.679688 Z M 103.464844 137.179688 L 104.589844 137.179688 L 104.589844 138.605469 L 103.464844 138.605469 Z M 103.464844 137.179688 "/>
<path style=" stroke:none;fill-rule:nonzero;fill:rgb(0%,0%,0%);fill-opacity:1;" d="M 112.261719 141.15625 C 112.542969 140.648438 112.878906 140.277344 113.269531 140.039062 C 113.660156 139.796875 114.117188 139.679688 114.648438 139.679688 C 115.359375 139.679688 115.910156 139.925781 116.296875 140.425781 C 116.683594 140.921875 116.875 141.632812 116.875 142.550781 L 116.875 146.679688 L 115.746094 146.679688 L 115.746094 142.589844 C 115.746094 141.933594 115.628906 141.449219 115.398438 141.132812 C 115.164062 140.8125 114.8125 140.65625 114.335938 140.65625 C 113.753906 140.65625 113.292969 140.847656 112.957031 141.234375 C 112.617188 141.621094 112.449219 142.148438 112.449219 142.816406 L 112.449219 146.679688 L 111.320312 146.679688 L 111.320312 142.589844 C 111.320312 141.929688 111.207031 141.441406 110.972656 141.128906 C 110.742188 140.8125 110.382812 140.65625 109.898438 140.65625 C 109.324219 140.65625 108.867188 140.847656 108.53125 141.238281 C 108.191406 141.625 108.023438 142.152344 108.023438 142.816406 L 108.023438 146.679688 L 106.894531 146.679688 L 106.894531 139.84375 L 108.023438 139.84375 L 108.023438 140.90625 C 108.28125 140.484375 108.589844 140.175781 108.945312 139.976562 C 109.304688 139.777344 109.730469 139.679688 110.222656 139.679688 C 110.71875 139.679688 111.140625 139.804688 111.488281 140.058594 C 111.835938 140.308594 112.09375 140.675781 112.261719 141.15625 Z M 112.261719 141.15625 "/>
<path style=" stroke:none;fill-rule:nonzero;fill:rgb(0%,0%,0%);fill-opacity:1;" d="M 126.039062 141.632812 C 125.484375 141.632812 125.046875 141.820312 124.722656 142.199219 C 124.398438 142.578125 124.238281 143.09375 124.238281 143.753906 C 124.238281 144.410156 124.398438 144.925781 124.722656 145.308594 C 125.046875 145.6875 125.484375 145.878906 126.039062 145.878906 C 126.589844 145.878906 127.03125 145.6875 127.351562 145.308594 C 127.675781 144.925781 127.835938 144.410156 127.835938 143.753906 C 127.835938 143.09375 127.675781 142.578125 127.351562 142.199219 C 127.03125 141.820312 126.589844 141.632812 126.039062 141.632812 Z M 128.484375 137.765625 L 128.484375 138.890625 C 128.175781 138.742188 127.863281 138.632812 127.546875 138.554688 C 127.234375 138.476562 126.921875 138.4375 126.609375 138.4375 C 125.796875 138.4375 125.175781 138.710938 124.746094 139.261719 C 124.316406 139.8125 124.070312 140.640625 124.011719 141.753906 C 124.25 141.398438 124.550781 141.125 124.914062 140.9375 C 125.277344 140.75 125.675781 140.65625 126.109375 140.65625 C 127.027344 140.65625 127.75 140.933594 128.28125 141.488281 C 128.8125 142.042969 129.078125 142.796875 129.078125 143.753906 C 129.078125 144.691406 128.800781 145.441406 128.246094 146.007812 C 127.695312 146.574219 126.957031 146.855469 126.039062 146.855469 C 124.984375 146.855469 124.175781 146.453125 123.621094 145.644531 C 123.0625 144.835938 122.785156 143.664062 122.785156 142.132812 C 122.785156 140.691406 123.125 139.542969 123.808594 138.6875 C 124.492188 137.828125 125.410156 137.402344 126.5625 137.402344 C 126.871094 137.402344 127.183594 137.429688 127.5 137.492188 C 127.8125 137.554688 128.144531 137.644531 128.484375 137.765625 Z M 128.484375 137.765625 "/>
<path style="fill:none;stroke-width:1.5;stroke-linecap:square;stroke-linejoin:round;stroke:rgb(83.921569%,15.294118%,15.686275%);stroke-opacity:1;stroke-miterlimit:4;" d="M 47.484375 128.521875 L 67.48125 128.521875 " transform="matrix(1.25,0,0,1.25,0,0.000000000000014211)"/>
<path style=" stroke:none;fill-rule:nonzero;fill:rgb(0%,0%,0%);fill-opacity:1;" d="M 100.027344 159.226562 L 100.027344 155.527344 L 101.152344 155.527344 L 101.152344 165.027344 L 100.027344 165.027344 L 100.027344 164 C 99.792969 164.40625 99.496094 164.707031 99.132812 164.90625 C 98.773438 165.105469 98.34375 165.203125 97.835938 165.203125 C 97.011719 165.203125 96.339844 164.875 95.820312 164.214844 C 95.300781 163.554688 95.042969 162.6875 95.042969 161.613281 C 95.042969 160.539062 95.300781 159.671875 95.820312 159.015625 C 96.339844 158.355469 97.011719 158.027344 97.835938 158.027344 C 98.34375 158.027344 98.773438 158.125 99.132812 158.324219 C 99.496094 158.519531 99.792969 158.820312 100.027344 159.226562 Z M 96.203125 161.613281 C 96.203125 162.4375 96.371094 163.085938 96.710938 163.558594 C 97.050781 164.027344 97.519531 164.261719 98.113281 164.261719 C 98.707031 164.261719 99.175781 164.027344 99.515625 163.558594 C 99.859375 163.085938 100.027344 162.4375 100.027344 161.613281 C 100.027344 160.789062 99.859375 160.140625 99.515625 159.671875 C 99.175781 159.199219 98.707031 158.964844 98.113281 158.964844 C 97.519531 158.964844 97.050781 159.199219 96.710938 159.671875 C 96.371094 160.140625 96.203125 160.789062 96.203125 161.613281 Z M 96.203125 161.613281 "/>
<path style=" stroke:none;fill-rule:nonzero;fill:rgb(0%,0%,0%);fill-opacity:1;" d="M 103.464844 158.191406 L 104.589844 158.191406 L 104.589844 165.027344 L 103.464844 165.027344 Z M 103.464844 155.527344 L 104.589844 155.527344 L 104.589844 156.953125 L 103.464844 156.953125 Z M 103.464844 155.527344 "/>
<path style=" stroke:none;fill-rule:nonzero;fill:rgb(0%,0%,0%);fill-opacity:1;" d="M 112.261719 159.503906 C 112.542969 158.996094 112.878906 158.625 113.269531 158.386719 C 113.660156 158.144531 114.117188 158.027344 114.648438 158.027344 C 115.359375 158.027344 115.910156 158.273438 116.296875 158.773438 C 116.683594 159.269531 116.875 159.980469 116.875 160.898438 L 116.875 165.027344 L 115.746094 165.027344 L 115.746094 160.9375 C 115.746094 160.28125 115.628906 159.796875 115.398438 159.480469 C 115.164062 159.160156 114.8125 159.003906 114.335938 159.003906 C 113.753906 159.003906 113.292969 159.195312 112.957031 159.582031 C 112.617188 159.96875 112.449219 160.496094 112.449219 161.164062 L 112.449219 165.027344 L 111.320312 165.027344 L 111.320312 160.9375 C 111.320312 160.277344 111.207031 159.789062 110.972656 159.476562 C 110.742188 159.160156 110.382812 159.003906 109.898438 159.003906 C 109.324219 159.003906 108.867188 159.195312 108.53125 159.585938 C 108.191406 159.972656 108.023438 160.5 108.023438 161.164062 L 108.023438 165.027344 L 106.894531 165.027344 L 106.894531 158.191406 L 108.023438 158.191406 L 108.023438 159.253906 C 108.28125 158.832031 108.589844 158.523438 108.945312 158.324219 C 109.304688 158.125 109.730469 158.027344 110.222656 158.027344 C 110.71875 158.027344 111.140625 158.152344 111.488281 158.40625 C 111.835938 158.65625 112.09375 159.023438 112.261719 159.503906 Z M 112.261719 159.503906 "/>
<path style=" stroke:none;fill-rule:nonzero;fill:rgb(0%,0%,0%);fill-opacity:1;" d="M 122.9375 155.914062 L 128.796875 155.914062 L 128.796875 156.4375 L 125.488281 165.027344 L 124.199219 165.027344 L 127.3125 156.953125 L 122.9375 156.953125 Z M 122.9375 155.914062 "/>
</g>
</svg>
