<?xml version="1.0" encoding="UTF-8"?>
<svg xmlns="http://www.w3.org/2000/svg" xmlns:xlink="http://www.w3.org/1999/xlink" width="259pt" height="139pt" viewBox="0 0 259 139" version="1.1">
<g id="surface1">
<path style="fill-rule:nonzero;fill:rgb(100%,100%,100%);fill-opacity:1;stroke-width:1;stroke-linecap:round;stroke-linejoin:round;stroke:rgb(0%,0%,0%);stroke-opacity:1;stroke-miterlimit:10;" d="M 401 466.9 L 417 466.9 L 417 486.9 L 401 486.9 Z M 401 466.9 " transform="matrix(1.25,0,0,1.25,-420,-496.25)"/>
<path style="fill:none;stroke-width:1;stroke-linecap:round;stroke-linejoin:round;stroke:rgb(0%,0%,0%);stroke-opacity:1;stroke-miterlimit:10;" d="M 409 466.9 L 409 457.4 " transform="matrix(1.25,0,0,1.25,-420,-496.25)"/>
<path style="fill:none;stroke-width:1;stroke-linecap:butt;stroke-linejoin:miter;stroke:rgb(0%,0%,0%);stroke-opacity:1;stroke-miterlimit:10;" d="M 409 453.4 L 409 457.4 M 407.5 457.4 L 409 453.4 L 410.5 457.4 " transform="matrix(1.25,0,0,1.25,-420,-496.25)"/>
<path style="fill-rule:nonzero;fill:rgb(100%,100%,100%);fill-opacity:1;stroke-width:1;stroke-linecap:round;stroke-linejoin:round;stroke:rgb(0%,0%,0%);stroke-opacity:1;stroke-miterlimit:10;" d="M 450.7 466.8 L 466.7 466.8 L 466.7 486.8 L 450.7 486.8 Z M 450.7 466.8 " transform="matrix(1.25,0,0,1.25,-420,-496.25)"/>
<path style="fill:none;stroke-width:1;stroke-linecap:round;stroke-linejoin:round;stroke:rgb(0%,0%,0%);stroke-opacity:1;stroke-miterlimit:10;" d="M 458.7 466.8 L 458.7 457.3 " transform="matrix(1.25,0,0,1.25,-420,-496.25)"/>
<path style="fill:none;stroke-width:1;stroke-linecap:butt;stroke-linejoin:miter;stroke:rgb(0%,0%,0%);stroke-opacity:1;stroke-miterlimit:10;" d="M 458.7 453.3 L 458.7 457.3 M 457.2 457.3 L 458.7 453.3 L 460.2 457.3 " transform="matrix(1.25,0,0,1.25,-420,-496.25)"/>
<path style="fill-rule:nonzero;fill:rgb(69.803922%,85.098039%,100%);fill-opacity:1;stroke-width:1;stroke-linecap:round;stroke-linejoin:round;stroke:rgb(0%,0%,0%);stroke-opacity:1;stroke-miterlimit:10;" d="M 488.496875 466.9 L 504.496875 466.9 L 504.496875 486.9 L 488.496875 486.9 Z M 488.496875 466.9 " transform="matrix(1.25,0,0,1.25,-420,-496.25)"/>
<path style="fill:none;stroke-width:1;stroke-linecap:round;stroke-linejoin:round;stroke:rgb(0%,0%,0%);stroke-opacity:1;stroke-miterlimit:10;" d="M 496.496875 466.9 L 496.496875 457.4 " transform="matrix(1.25,0,0,1.25,-420,-496.25)"/>
<path style="fill:none;stroke-width:1;stroke-linecap:butt;stroke-linejoin:miter;stroke:rgb(0%,0%,0%);stroke-opacity:1;stroke-miterlimit:10;" d="M 496.496875 453.4 L 496.496875 457.4 M 494.996875 457.4 L 496.496875 453.4 L 497.996875 457.4 " transform="matrix(1.25,0,0,1.25,-420,-496.25)"/>
<path style=" stroke:none;fill-rule:nonzero;fill:rgb(0%,0%,0%);fill-opacity:1;" d="M 149.445312 126.390625 L 149.289062 127.191406 C 149.039062 127.253906 148.804688 127.289062 148.585938 127.289062 C 148.195312 127.289062 147.882812 127.191406 147.648438 126.996094 C 147.460938 126.855469 147.375 126.652344 147.375 126.390625 C 147.375 126.273438 147.421875 125.980469 147.53125 125.511719 L 148.234375 122.132812 L 147.453125 122.132812 L 147.609375 121.351562 L 148.390625 121.351562 L 148.703125 119.925781 L 149.835938 119.242188 L 149.386719 121.351562 L 150.363281 121.351562 L 150.207031 122.132812 L 149.230469 122.132812 L 148.546875 125.355469 C 148.46875 125.761719 148.429688 126 148.429688 126.078125 C 148.429688 126.195312 148.460938 126.289062 148.527344 126.351562 C 148.589844 126.417969 148.703125 126.449219 148.859375 126.449219 C 149.078125 126.449219 149.273438 126.429688 149.445312 126.390625 Z M 149.445312 126.390625 "/>
<path style=" stroke:none;fill-rule:nonzero;fill:rgb(0%,0%,0%);fill-opacity:1;" d="M 150.402344 124.769531 L 150.597656 123.773438 L 153.644531 123.773438 L 153.429688 124.769531 Z M 150.402344 124.769531 "/>
<path style=" stroke:none;fill-rule:nonzero;fill:rgb(0%,0%,0%);fill-opacity:1;" d="M 156.335938 127.191406 L 157.605469 121.117188 C 157.058594 121.546875 156.28125 121.894531 155.28125 122.152344 L 155.476562 121.253906 C 155.96875 121.046875 156.457031 120.785156 156.941406 120.472656 C 157.421875 120.160156 157.78125 119.882812 158.015625 119.632812 C 158.171875 119.492188 158.3125 119.316406 158.445312 119.105469 L 159.011719 119.105469 L 157.332031 127.191406 Z M 156.335938 127.191406 "/>
<path style=" stroke:none;fill-rule:nonzero;fill:rgb(0%,0%,0%);fill-opacity:1;" d="M 91.085938 127.316406 L 92.355469 121.242188 C 91.808594 121.671875 91.03125 122.019531 90.03125 122.277344 L 90.226562 121.378906 C 90.71875 121.171875 91.207031 120.910156 91.691406 120.597656 C 92.171875 120.285156 92.53125 120.007812 92.765625 119.757812 C 92.921875 119.617188 93.0625 119.441406 93.195312 119.230469 L 93.761719 119.230469 L 92.082031 127.316406 Z M 91.085938 127.316406 "/>
<path style=" stroke:none;fill-rule:nonzero;fill:rgb(0%,0%,0%);fill-opacity:1;" d="M 201.066406 127.449219 L 200.910156 128.25 C 200.660156 128.3125 200.425781 128.347656 200.207031 128.347656 C 199.816406 128.347656 199.503906 128.25 199.269531 128.054688 C 199.082031 127.914062 198.996094 127.710938 198.996094 127.449219 C 198.996094 127.332031 199.042969 127.039062 199.152344 126.570312 L 199.855469 123.191406 L 199.074219 123.191406 L 199.230469 122.410156 L 200.011719 122.410156 L 200.324219 120.984375 L 201.457031 120.300781 L 201.007812 122.410156 L 201.984375 122.410156 L 201.828125 123.191406 L 200.851562 123.191406 L 200.167969 126.414062 C 200.089844 126.820312 200.050781 127.058594 200.050781 127.136719 C 200.050781 127.253906 200.078125 127.347656 200.148438 127.410156 C 200.210938 127.476562 200.324219 127.507812 200.480469 127.507812 C 200.699219 127.507812 200.894531 127.488281 201.066406 127.449219 Z M 201.066406 127.449219 "/>
<path style="fill-rule:nonzero;fill:rgb(40%,74.901961%,100%);fill-opacity:1;stroke-width:1;stroke-linecap:round;stroke-linejoin:round;stroke:rgb(0%,0%,0%);stroke-opacity:1;stroke-miterlimit:10;" d="M 401 429.4 L 504.496875 429.4 L 504.496875 450.4 L 401 450.4 Z M 401 429.4 " transform="matrix(1.25,0,0,1.25,-420,-496.25)"/>
<path style=" stroke:none;fill-rule:nonzero;fill:rgb(0%,0%,0%);fill-opacity:1;" d="M 113.296875 54.171875 L 114.292969 54.074219 C 114.339844 54.480469 114.453125 54.8125 114.625 55.070312 C 114.804688 55.335938 115.078125 55.539062 115.445312 55.695312 C 115.804688 55.851562 116.214844 55.929688 116.675781 55.929688 C 117.074219 55.929688 117.4375 55.871094 117.75 55.753906 C 118.0625 55.636719 118.296875 55.476562 118.453125 55.265625 C 118.609375 55.046875 118.6875 54.8125 118.6875 54.5625 C 118.6875 54.320312 118.609375 54.101562 118.453125 53.917969 C 118.304688 53.722656 118.066406 53.5625 117.730469 53.429688 C 117.519531 53.34375 117.046875 53.210938 116.304688 53.039062 C 115.5625 52.859375 115.039062 52.6875 114.742188 52.53125 C 114.359375 52.335938 114.078125 52.09375 113.882812 51.789062 C 113.695312 51.492188 113.609375 51.15625 113.609375 50.773438 C 113.609375 50.375 113.714844 49.992188 113.941406 49.640625 C 114.175781 49.289062 114.511719 49.023438 114.957031 48.839844 C 115.394531 48.660156 115.894531 48.566406 116.441406 48.566406 C 117.035156 48.566406 117.5625 48.664062 118.023438 48.859375 C 118.476562 49.046875 118.824219 49.324219 119.058594 49.699219 C 119.300781 50.078125 119.4375 50.5 119.46875 50.96875 L 118.433594 51.046875 C 118.378906 50.539062 118.199219 50.15625 117.886719 49.894531 C 117.574219 49.636719 117.105469 49.503906 116.480469 49.503906 C 115.839844 49.503906 115.371094 49.621094 115.074219 49.855469 C 114.769531 50.089844 114.625 50.378906 114.625 50.714844 C 114.625 51.003906 114.726562 51.238281 114.9375 51.417969 C 115.140625 51.613281 115.679688 51.808594 116.539062 52.003906 C 117.40625 52.199219 118.007812 52.371094 118.335938 52.511719 C 118.804688 52.722656 119.144531 52.996094 119.371094 53.332031 C 119.589844 53.660156 119.703125 54.046875 119.703125 54.484375 C 119.703125 54.90625 119.574219 55.304688 119.332031 55.695312 C 119.082031 56.078125 118.730469 56.367188 118.277344 56.574219 C 117.816406 56.78125 117.304688 56.886719 116.734375 56.886719 C 116 56.886719 115.390625 56.78125 114.898438 56.574219 C 114.398438 56.355469 114.007812 56.039062 113.726562 55.617188 C 113.453125 55.1875 113.304688 54.710938 113.296875 54.171875 Z M 113.296875 54.171875 "/>
<path style=" stroke:none;fill-rule:nonzero;fill:rgb(0%,0%,0%);fill-opacity:1;" d="M 125.019531 54.875 L 126.054688 54.992188 C 125.882812 55.59375 125.574219 56.0625 125.136719 56.398438 C 124.707031 56.726562 124.148438 56.886719 123.476562 56.886719 C 122.625 56.886719 121.953125 56.628906 121.445312 56.105469 C 120.945312 55.574219 120.703125 54.832031 120.703125 53.878906 C 120.703125 52.902344 120.957031 52.148438 121.464844 51.613281 C 121.972656 51.066406 122.625 50.792969 123.4375 50.792969 C 124.21875 50.792969 124.847656 51.0625 125.332031 51.59375 C 125.824219 52.117188 126.074219 52.859375 126.074219 53.820312 C 126.074219 53.890625 126.074219 53.976562 126.074219 54.09375 L 121.71875 54.09375 C 121.757812 54.734375 121.9375 55.222656 122.265625 55.558594 C 122.585938 55.898438 122.996094 56.066406 123.496094 56.066406 C 123.855469 56.066406 124.164062 55.976562 124.414062 55.792969 C 124.671875 55.597656 124.871094 55.296875 125.019531 54.875 Z M 121.777344 53.273438 L 125.039062 53.273438 C 125 52.78125 124.871094 52.410156 124.667969 52.160156 C 124.355469 51.785156 123.945312 51.59375 123.4375 51.59375 C 122.976562 51.59375 122.597656 51.75 122.285156 52.0625 C 121.980469 52.367188 121.816406 52.765625 121.777344 53.273438 Z M 121.777344 53.273438 "/>
<path style=" stroke:none;fill-rule:nonzero;fill:rgb(0%,0%,0%);fill-opacity:1;" d="M 127.273438 56.75 L 127.273438 48.703125 L 128.25 48.703125 L 128.25 56.75 Z M 127.273438 56.75 "/>
<path style=" stroke:none;fill-rule:nonzero;fill:rgb(0%,0%,0%);fill-opacity:1;" d="M 130.027344 56.75 L 130.027344 51.691406 L 129.148438 51.691406 L 129.148438 50.910156 L 130.027344 50.910156 L 130.027344 50.304688 C 130.027344 49.90625 130.054688 49.609375 130.125 49.425781 C 130.226562 49.167969 130.398438 48.957031 130.632812 48.800781 C 130.875 48.644531 131.21875 48.566406 131.648438 48.566406 C 131.921875 48.566406 132.222656 48.601562 132.566406 48.664062 L 132.410156 49.523438 C 132.214844 49.484375 132.023438 49.464844 131.84375 49.464844 C 131.539062 49.464844 131.324219 49.53125 131.199219 49.660156 C 131.066406 49.792969 131.003906 50.03125 131.003906 50.382812 L 131.003906 50.910156 L 132.15625 50.910156 L 132.15625 51.691406 L 131.003906 51.691406 L 131.003906 56.75 Z M 130.027344 56.75 "/>
<path style=" stroke:none;fill-rule:nonzero;fill:rgb(0%,0%,0%);fill-opacity:1;" d="M 132.527344 54.328125 L 132.527344 53.332031 L 135.574219 53.332031 L 135.574219 54.328125 Z M 132.527344 54.328125 "/>
<path style=" stroke:none;fill-rule:nonzero;fill:rgb(0%,0%,0%);fill-opacity:1;" d="M 140.472656 56.027344 C 140.105469 56.339844 139.753906 56.5625 139.417969 56.691406 C 139.074219 56.820312 138.714844 56.886719 138.324219 56.886719 C 137.683594 56.886719 137.191406 56.730469 136.839844 56.417969 C 136.496094 56.105469 136.332031 55.703125 136.332031 55.207031 C 136.332031 54.921875 136.394531 54.660156 136.527344 54.425781 C 136.652344 54.191406 136.824219 54.007812 137.035156 53.859375 C 137.238281 53.71875 137.472656 53.605469 137.738281 53.527344 C 137.933594 53.488281 138.226562 53.445312 138.617188 53.390625 C 139.421875 53.304688 140.011719 53.1875 140.394531 53.039062 C 140.394531 52.914062 140.394531 52.824219 140.394531 52.785156 C 140.394531 52.382812 140.300781 52.101562 140.121094 51.945312 C 139.855469 51.710938 139.480469 51.59375 138.988281 51.59375 C 138.519531 51.59375 138.171875 51.679688 137.953125 51.847656 C 137.726562 52.003906 137.566406 52.292969 137.464844 52.707031 L 136.507812 52.589844 C 136.585938 52.175781 136.722656 51.84375 136.917969 51.59375 C 137.121094 51.335938 137.414062 51.140625 137.796875 51.007812 C 138.1875 50.867188 138.625 50.792969 139.125 50.792969 C 139.632812 50.792969 140.03125 50.851562 140.335938 50.96875 C 140.648438 51.085938 140.871094 51.238281 141.019531 51.417969 C 141.175781 51.589844 141.277344 51.808594 141.332031 52.082031 C 141.371094 52.253906 141.390625 52.550781 141.390625 52.980469 L 141.390625 54.308594 C 141.390625 55.222656 141.410156 55.804688 141.449219 56.046875 C 141.488281 56.296875 141.570312 56.53125 141.703125 56.75 L 140.667969 56.75 C 140.558594 56.546875 140.496094 56.300781 140.472656 56.027344 Z M 140.394531 53.820312 C 140.027344 53.96875 139.484375 54.089844 138.773438 54.191406 C 138.367188 54.257812 138.078125 54.328125 137.914062 54.40625 C 137.742188 54.476562 137.609375 54.578125 137.523438 54.71875 C 137.429688 54.867188 137.386719 55.023438 137.386719 55.1875 C 137.386719 55.453125 137.484375 55.671875 137.679688 55.851562 C 137.875 56.023438 138.167969 56.105469 138.558594 56.105469 C 138.933594 56.105469 139.269531 56.023438 139.574219 55.851562 C 139.871094 55.6875 140.089844 55.457031 140.238281 55.167969 C 140.339844 54.949219 140.394531 54.621094 140.394531 54.191406 Z M 140.394531 53.820312 "/>
<path style=" stroke:none;fill-rule:nonzero;fill:rgb(0%,0%,0%);fill-opacity:1;" d="M 145.089844 55.871094 L 145.226562 56.730469 C 144.9375 56.792969 144.6875 56.828125 144.484375 56.828125 C 144.117188 56.828125 143.839844 56.769531 143.644531 56.652344 C 143.449219 56.535156 143.300781 56.390625 143.214844 56.203125 C 143.136719 56.023438 143.097656 55.636719 143.097656 55.050781 L 143.097656 51.691406 L 142.375 51.691406 L 142.375 50.910156 L 143.097656 50.910156 L 143.097656 49.464844 L 144.09375 48.878906 L 144.09375 50.910156 L 145.089844 50.910156 L 145.089844 51.691406 L 144.09375 51.691406 L 144.09375 55.089844 C 144.09375 55.378906 144.101562 55.558594 144.132812 55.636719 C 144.171875 55.714844 144.230469 55.78125 144.308594 55.832031 C 144.386719 55.886719 144.492188 55.910156 144.640625 55.910156 C 144.757812 55.910156 144.902344 55.898438 145.089844 55.871094 Z M 145.089844 55.871094 "/>
<path style=" stroke:none;fill-rule:nonzero;fill:rgb(0%,0%,0%);fill-opacity:1;" d="M 148.214844 55.871094 L 148.351562 56.730469 C 148.0625 56.792969 147.8125 56.828125 147.609375 56.828125 C 147.242188 56.828125 146.964844 56.769531 146.769531 56.652344 C 146.574219 56.535156 146.425781 56.390625 146.339844 56.203125 C 146.261719 56.023438 146.222656 55.636719 146.222656 55.050781 L 146.222656 51.691406 L 145.5 51.691406 L 145.5 50.910156 L 146.222656 50.910156 L 146.222656 49.464844 L 147.21875 48.878906 L 147.21875 50.910156 L 148.214844 50.910156 L 148.214844 51.691406 L 147.21875 51.691406 L 147.21875 55.089844 C 147.21875 55.378906 147.226562 55.558594 147.257812 55.636719 C 147.296875 55.714844 147.355469 55.78125 147.433594 55.832031 C 147.511719 55.886719 147.617188 55.910156 147.765625 55.910156 C 147.882812 55.910156 148.027344 55.898438 148.214844 55.871094 Z M 148.214844 55.871094 "/>
<path style=" stroke:none;fill-rule:nonzero;fill:rgb(0%,0%,0%);fill-opacity:1;" d="M 153.15625 54.875 L 154.191406 54.992188 C 154.019531 55.59375 153.710938 56.0625 153.273438 56.398438 C 152.84375 56.726562 152.285156 56.886719 151.613281 56.886719 C 150.761719 56.886719 150.089844 56.628906 149.582031 56.105469 C 149.082031 55.574219 148.839844 54.832031 148.839844 53.878906 C 148.839844 52.902344 149.09375 52.148438 149.601562 51.613281 C 150.109375 51.066406 150.761719 50.792969 151.574219 50.792969 C 152.355469 50.792969 152.984375 51.0625 153.46875 51.59375 C 153.960938 52.117188 154.210938 52.859375 154.210938 53.820312 C 154.210938 53.890625 154.210938 53.976562 154.210938 54.09375 L 149.855469 54.09375 C 149.894531 54.734375 150.074219 55.222656 150.402344 55.558594 C 150.722656 55.898438 151.132812 56.066406 151.632812 56.066406 C 151.992188 56.066406 152.300781 55.976562 152.550781 55.792969 C 152.808594 55.597656 153.007812 55.296875 153.15625 54.875 Z M 149.914062 53.273438 L 153.175781 53.273438 C 153.136719 52.78125 153.007812 52.410156 152.804688 52.160156 C 152.492188 51.785156 152.082031 51.59375 151.574219 51.59375 C 151.113281 51.59375 150.734375 51.75 150.421875 52.0625 C 150.117188 52.367188 149.953125 52.765625 149.914062 53.273438 Z M 149.914062 53.273438 "/>
<path style=" stroke:none;fill-rule:nonzero;fill:rgb(0%,0%,0%);fill-opacity:1;" d="M 155.429688 56.75 L 155.429688 50.910156 L 156.328125 50.910156 L 156.328125 51.75 C 156.742188 51.117188 157.363281 50.792969 158.183594 50.792969 C 158.535156 50.792969 158.851562 50.859375 159.140625 50.988281 C 159.4375 51.105469 159.65625 51.273438 159.804688 51.476562 C 159.945312 51.671875 160.046875 51.914062 160.117188 52.199219 C 160.15625 52.382812 160.175781 52.703125 160.175781 53.15625 L 160.175781 56.75 L 159.179688 56.75 L 159.179688 53.195312 C 159.179688 52.796875 159.140625 52.492188 159.0625 52.296875 C 158.984375 52.101562 158.847656 51.945312 158.652344 51.828125 C 158.457031 51.703125 158.226562 51.632812 157.96875 51.632812 C 157.546875 51.632812 157.1875 51.769531 156.875 52.042969 C 156.570312 52.304688 156.425781 52.8125 156.425781 53.566406 L 156.425781 56.75 Z M 155.429688 56.75 "/>
<path style=" stroke:none;fill-rule:nonzero;fill:rgb(0%,0%,0%);fill-opacity:1;" d="M 163.851562 55.871094 L 163.988281 56.730469 C 163.703125 56.792969 163.453125 56.828125 163.246094 56.828125 C 162.882812 56.828125 162.601562 56.769531 162.40625 56.652344 C 162.210938 56.535156 162.066406 56.390625 161.976562 56.203125 C 161.898438 56.023438 161.859375 55.636719 161.859375 55.050781 L 161.859375 51.691406 L 161.136719 51.691406 L 161.136719 50.910156 L 161.859375 50.910156 L 161.859375 49.464844 L 162.855469 48.878906 L 162.855469 50.910156 L 163.851562 50.910156 L 163.851562 51.691406 L 162.855469 51.691406 L 162.855469 55.089844 C 162.855469 55.378906 162.867188 55.558594 162.894531 55.636719 C 162.933594 55.714844 162.992188 55.78125 163.070312 55.832031 C 163.148438 55.886719 163.257812 55.910156 163.402344 55.910156 C 163.519531 55.910156 163.667969 55.898438 163.851562 55.871094 Z M 163.851562 55.871094 "/>
<path style=" stroke:none;fill-rule:nonzero;fill:rgb(0%,0%,0%);fill-opacity:1;" d="M 164.808594 49.835938 L 164.808594 48.703125 L 165.804688 48.703125 L 165.804688 49.835938 Z M 164.808594 56.75 L 164.808594 50.910156 L 165.804688 50.910156 L 165.804688 56.75 Z M 164.808594 56.75 "/>
<path style=" stroke:none;fill-rule:nonzero;fill:rgb(0%,0%,0%);fill-opacity:1;" d="M 166.9375 53.839844 C 166.9375 52.761719 167.238281 51.960938 167.835938 51.4375 C 168.34375 51.007812 168.957031 50.792969 169.671875 50.792969 C 170.480469 50.792969 171.136719 51.054688 171.644531 51.574219 C 172.152344 52.097656 172.40625 52.820312 172.40625 53.742188 C 172.40625 54.5 172.289062 55.089844 172.054688 55.519531 C 171.832031 55.949219 171.507812 56.289062 171.078125 56.535156 C 170.648438 56.769531 170.179688 56.886719 169.671875 56.886719 C 168.851562 56.886719 168.1875 56.628906 167.679688 56.105469 C 167.183594 55.574219 166.9375 54.816406 166.9375 53.839844 Z M 167.953125 53.839844 C 167.953125 54.582031 168.117188 55.144531 168.441406 55.519531 C 168.765625 55.886719 169.175781 56.066406 169.671875 56.066406 C 170.167969 56.066406 170.578125 55.886719 170.902344 55.519531 C 171.226562 55.144531 171.390625 54.570312 171.390625 53.800781 C 171.390625 53.085938 171.226562 52.539062 170.902344 52.160156 C 170.578125 51.785156 170.167969 51.59375 169.671875 51.59375 C 169.175781 51.59375 168.765625 51.785156 168.441406 52.160156 C 168.117188 52.527344 167.953125 53.085938 167.953125 53.839844 Z M 167.953125 53.839844 "/>
<path style=" stroke:none;fill-rule:nonzero;fill:rgb(0%,0%,0%);fill-opacity:1;" d="M 173.566406 56.75 L 173.566406 50.910156 L 174.464844 50.910156 L 174.464844 51.75 C 174.878906 51.117188 175.5 50.792969 176.320312 50.792969 C 176.671875 50.792969 176.988281 50.859375 177.277344 50.988281 C 177.574219 51.105469 177.796875 51.273438 177.941406 51.476562 C 178.082031 51.671875 178.1875 51.914062 178.253906 52.199219 C 178.292969 52.382812 178.3125 52.703125 178.3125 53.15625 L 178.3125 56.75 L 177.316406 56.75 L 177.316406 53.195312 C 177.316406 52.796875 177.277344 52.492188 177.199219 52.296875 C 177.121094 52.101562 176.984375 51.945312 176.789062 51.828125 C 176.59375 51.703125 176.363281 51.632812 176.105469 51.632812 C 175.6875 51.632812 175.324219 51.769531 175.011719 52.042969 C 174.710938 52.304688 174.5625 52.8125 174.5625 53.566406 L 174.5625 56.75 Z M 173.566406 56.75 "/>
<path style="fill-rule:nonzero;fill:rgb(69.803922%,85.098039%,100%);fill-opacity:1;stroke-width:1;stroke-linecap:round;stroke-linejoin:round;stroke:rgb(0%,0%,0%);stroke-opacity:1;stroke-miterlimit:10;" d="M 488.69375 397.9 L 504.69375 397.9 L 504.69375 417.9 L 488.69375 417.9 Z M 488.69375 397.9 " transform="matrix(1.25,0,0,1.25,-420,-496.25)"/>
<path style="fill:none;stroke-width:1;stroke-linecap:round;stroke-linejoin:round;stroke:rgb(0%,0%,0%);stroke-opacity:1;stroke-miterlimit:10;" d="M 496.69375 423.8 L 496.69375 429.4 " transform="matrix(1.25,0,0,1.25,-420,-496.25)"/>
<path style="fill:none;stroke-width:1;stroke-linecap:butt;stroke-linejoin:miter;stroke:rgb(0%,0%,0%);stroke-opacity:1;stroke-miterlimit:10;" d="M 496.69375 419.8 L 496.69375 423.8 M 495.19375 423.8 L 496.69375 419.8 L 498.19375 423.8 " transform="matrix(1.25,0,0,1.25,-420,-496.25)"/>
<path style=" stroke:none;fill-rule:nonzero;fill:rgb(0%,0%,0%);fill-opacity:1;" d="M 7.195312 78.75 L 7.195312 70.703125 L 8.269531 70.703125 L 8.269531 74.6875 L 12.273438 70.703125 L 13.699219 70.703125 L 10.339844 73.964844 L 13.855469 78.75 L 12.449219 78.75 L 9.578125 74.667969 L 8.269531 75.957031 L 8.269531 78.75 Z M 7.195312 78.75 "/>
<path style=" stroke:none;fill-rule:nonzero;fill:rgb(0%,0%,0%);fill-opacity:1;" d="M 18.605469 76.875 L 19.640625 76.992188 C 19.46875 77.59375 19.164062 78.0625 18.722656 78.398438 C 18.292969 78.726562 17.738281 78.886719 17.0625 78.886719 C 16.214844 78.886719 15.539062 78.628906 15.03125 78.105469 C 14.535156 77.574219 14.289062 76.832031 14.289062 75.878906 C 14.289062 74.902344 14.542969 74.148438 15.050781 73.613281 C 15.558594 73.066406 16.214844 72.792969 17.023438 72.792969 C 17.804688 72.792969 18.433594 73.0625 18.917969 73.59375 C 19.410156 74.117188 19.660156 74.859375 19.660156 75.820312 C 19.660156 75.890625 19.660156 75.976562 19.660156 76.09375 L 15.304688 76.09375 C 15.34375 76.734375 15.523438 77.222656 15.851562 77.558594 C 16.175781 77.898438 16.585938 78.066406 17.082031 78.066406 C 17.445312 78.066406 17.75 77.976562 18 77.792969 C 18.257812 77.597656 18.460938 77.296875 18.605469 76.875 Z M 15.363281 75.273438 L 18.625 75.273438 C 18.585938 74.78125 18.460938 74.410156 18.253906 74.160156 C 17.941406 73.785156 17.53125 73.59375 17.023438 73.59375 C 16.566406 73.59375 16.183594 73.75 15.871094 74.0625 C 15.570312 74.367188 15.402344 74.765625 15.363281 75.273438 Z M 15.363281 75.273438 "/>
<path style=" stroke:none;fill-rule:nonzero;fill:rgb(0%,0%,0%);fill-opacity:1;" d="M 20.839844 80.996094 L 20.722656 80.078125 C 20.941406 80.125 21.132812 80.15625 21.289062 80.15625 C 21.507812 80.15625 21.683594 80.117188 21.816406 80.039062 C 21.941406 79.96875 22.054688 79.875 22.148438 79.746094 C 22.195312 79.640625 22.292969 79.394531 22.441406 79.003906 C 22.464844 78.949219 22.5 78.871094 22.539062 78.769531 L 20.3125 72.910156 L 21.386719 72.910156 L 22.597656 76.289062 C 22.753906 76.71875 22.894531 77.167969 23.027344 77.636719 C 23.128906 77.195312 23.261719 76.753906 23.417969 76.308594 L 24.667969 72.910156 L 25.664062 72.910156 L 23.4375 78.847656 C 23.203125 79.484375 23.015625 79.925781 22.890625 80.175781 C 22.703125 80.5 22.503906 80.734375 22.285156 80.878906 C 22.058594 81.035156 21.785156 81.113281 21.464844 81.113281 C 21.277344 81.113281 21.074219 81.074219 20.839844 80.996094 Z M 20.839844 80.996094 "/>
<path style=" stroke:none;fill-rule:nonzero;fill:rgb(0%,0%,0%);fill-opacity:1;" d="M 26.113281 77.011719 L 27.089844 76.855469 C 27.136719 77.246094 27.289062 77.546875 27.539062 77.753906 C 27.796875 77.964844 28.148438 78.066406 28.59375 78.066406 C 29.046875 78.066406 29.382812 77.976562 29.609375 77.792969 C 29.828125 77.613281 29.941406 77.398438 29.941406 77.148438 C 29.941406 76.914062 29.84375 76.738281 29.648438 76.621094 C 29.5 76.53125 29.164062 76.414062 28.632812 76.269531 C 27.898438 76.089844 27.390625 75.933594 27.109375 75.800781 C 26.835938 75.671875 26.625 75.488281 26.484375 75.253906 C 26.335938 75.019531 26.269531 74.761719 26.269531 74.472656 C 26.269531 74.214844 26.328125 73.976562 26.445312 73.75 C 26.5625 73.53125 26.722656 73.339844 26.933594 73.183594 C 27.089844 73.082031 27.292969 72.988281 27.558594 72.910156 C 27.832031 72.832031 28.113281 72.792969 28.417969 72.792969 C 28.871094 72.792969 29.265625 72.859375 29.609375 72.988281 C 29.960938 73.121094 30.21875 73.296875 30.390625 73.515625 C 30.554688 73.742188 30.671875 74.039062 30.742188 74.414062 L 29.765625 74.550781 C 29.726562 74.253906 29.59375 74.019531 29.375 73.847656 C 29.164062 73.679688 28.871094 73.59375 28.496094 73.59375 C 28.035156 73.59375 27.714844 73.671875 27.519531 73.828125 C 27.324219 73.976562 27.226562 74.148438 27.226562 74.355469 C 27.226562 74.488281 27.265625 74.601562 27.34375 74.6875 C 27.421875 74.804688 27.546875 74.898438 27.734375 74.960938 C 27.820312 75 28.109375 75.085938 28.59375 75.214844 C 29.296875 75.398438 29.785156 75.546875 30.058594 75.664062 C 30.339844 75.78125 30.566406 75.957031 30.722656 76.191406 C 30.878906 76.414062 30.957031 76.695312 30.957031 77.03125 C 30.957031 77.375 30.859375 77.6875 30.664062 77.96875 C 30.46875 78.257812 30.183594 78.484375 29.824219 78.652344 C 29.472656 78.808594 29.0625 78.886719 28.59375 78.886719 C 27.835938 78.886719 27.253906 78.730469 26.855469 78.417969 C 26.464844 78.09375 26.214844 77.625 26.113281 77.011719 Z M 26.113281 77.011719 "/>
<path style=" stroke:none;fill-rule:nonzero;fill:rgb(0%,0%,0%);fill-opacity:1;" d="M 32.382812 78.75 L 32.382812 77.617188 L 33.515625 77.617188 L 33.515625 78.75 C 33.515625 79.164062 33.4375 79.496094 33.28125 79.746094 C 33.132812 80.003906 32.910156 80.203125 32.597656 80.351562 L 32.324219 79.921875 C 32.527344 79.828125 32.679688 79.691406 32.773438 79.511719 C 32.875 79.339844 32.933594 79.085938 32.949219 78.75 Z M 32.382812 78.75 "/>
<path style=" stroke:none;fill-rule:nonzero;fill:rgb(0%,0%,0%);fill-opacity:1;" d="M 40 78.75 L 37.773438 72.910156 L 38.828125 72.910156 L 40.078125 76.40625 C 40.207031 76.789062 40.332031 77.179688 40.449219 77.578125 C 40.539062 77.28125 40.664062 76.914062 40.820312 76.484375 L 42.109375 72.910156 L 43.125 72.910156 L 40.917969 78.75 Z M 40 78.75 "/>
<path style=" stroke:none;fill-rule:nonzero;fill:rgb(0%,0%,0%);fill-opacity:1;" d="M 47.8125 78.027344 C 47.445312 78.339844 47.09375 78.5625 46.757812 78.691406 C 46.417969 78.820312 46.054688 78.886719 45.664062 78.886719 C 45.023438 78.886719 44.53125 78.730469 44.179688 78.417969 C 43.839844 78.105469 43.671875 77.703125 43.671875 77.207031 C 43.671875 76.921875 43.734375 76.660156 43.867188 76.425781 C 43.996094 76.191406 44.164062 76.007812 44.375 75.859375 C 44.582031 75.71875 44.816406 75.605469 45.078125 75.527344 C 45.273438 75.488281 45.566406 75.445312 45.957031 75.390625 C 46.761719 75.304688 47.355469 75.1875 47.734375 75.039062 C 47.734375 74.914062 47.734375 74.824219 47.734375 74.785156 C 47.734375 74.382812 47.640625 74.101562 47.460938 73.945312 C 47.199219 73.710938 46.820312 73.59375 46.328125 73.59375 C 45.859375 73.59375 45.511719 73.679688 45.292969 73.847656 C 45.070312 74.003906 44.90625 74.292969 44.804688 74.707031 L 43.847656 74.589844 C 43.925781 74.175781 44.0625 73.84375 44.257812 73.59375 C 44.464844 73.335938 44.757812 73.140625 45.136719 73.007812 C 45.527344 72.867188 45.96875 72.792969 46.464844 72.792969 C 46.972656 72.792969 47.375 72.851562 47.675781 72.96875 C 47.988281 73.085938 48.214844 73.238281 48.359375 73.417969 C 48.515625 73.589844 48.617188 73.808594 48.671875 74.082031 C 48.710938 74.253906 48.730469 74.550781 48.730469 74.980469 L 48.730469 76.308594 C 48.730469 77.222656 48.75 77.804688 48.789062 78.046875 C 48.828125 78.296875 48.910156 78.53125 49.042969 78.75 L 48.007812 78.75 C 47.902344 78.546875 47.835938 78.300781 47.8125 78.027344 Z M 47.734375 75.820312 C 47.367188 75.96875 46.828125 76.089844 46.113281 76.191406 C 45.707031 76.257812 45.421875 76.328125 45.253906 76.40625 C 45.082031 76.476562 44.953125 76.578125 44.863281 76.71875 C 44.769531 76.867188 44.726562 77.023438 44.726562 77.1875 C 44.726562 77.453125 44.824219 77.671875 45.019531 77.851562 C 45.214844 78.023438 45.507812 78.105469 45.898438 78.105469 C 46.273438 78.105469 46.613281 78.023438 46.914062 77.851562 C 47.210938 77.6875 47.433594 77.457031 47.578125 77.167969 C 47.679688 76.949219 47.734375 76.621094 47.734375 76.191406 Z M 47.734375 75.820312 "/>
<path style=" stroke:none;fill-rule:nonzero;fill:rgb(0%,0%,0%);fill-opacity:1;" d="M 50.242188 78.75 L 50.242188 70.703125 L 51.21875 70.703125 L 51.21875 78.75 Z M 50.242188 78.75 "/>
<path style=" stroke:none;fill-rule:nonzero;fill:rgb(0%,0%,0%);fill-opacity:1;" d="M 56.589844 78.75 L 56.589844 77.890625 C 56.128906 78.554688 55.515625 78.886719 54.734375 78.886719 C 54.390625 78.886719 54.074219 78.820312 53.777344 78.691406 C 53.472656 78.550781 53.25 78.378906 53.09375 78.183594 C 52.945312 77.988281 52.847656 77.75 52.800781 77.460938 C 52.761719 77.265625 52.742188 76.953125 52.742188 76.523438 L 52.742188 72.910156 L 53.71875 72.910156 L 53.71875 76.152344 C 53.71875 76.675781 53.742188 77.023438 53.796875 77.1875 C 53.84375 77.453125 53.972656 77.65625 54.167969 77.8125 C 54.371094 77.960938 54.625 78.027344 54.929688 78.027344 C 55.226562 78.027344 55.503906 77.960938 55.769531 77.8125 C 56.027344 77.65625 56.207031 77.453125 56.316406 77.1875 C 56.417969 76.929688 56.472656 76.542969 56.472656 76.035156 L 56.472656 72.910156 L 57.46875 72.910156 L 57.46875 78.75 Z M 56.589844 78.75 "/>
<path style=" stroke:none;fill-rule:nonzero;fill:rgb(0%,0%,0%);fill-opacity:1;" d="M 63.003906 76.875 L 64.039062 76.992188 C 63.867188 77.59375 63.558594 78.0625 63.121094 78.398438 C 62.691406 78.726562 62.132812 78.886719 61.460938 78.886719 C 60.609375 78.886719 59.9375 78.628906 59.429688 78.105469 C 58.929688 77.574219 58.6875 76.832031 58.6875 75.878906 C 58.6875 74.902344 58.941406 74.148438 59.449219 73.613281 C 59.957031 73.066406 60.609375 72.792969 61.421875 72.792969 C 62.203125 72.792969 62.832031 73.0625 63.316406 73.59375 C 63.808594 74.117188 64.058594 74.859375 64.058594 75.820312 C 64.058594 75.890625 64.058594 75.976562 64.058594 76.09375 L 59.703125 76.09375 C 59.742188 76.734375 59.921875 77.222656 60.25 77.558594 C 60.570312 77.898438 60.980469 78.066406 61.480469 78.066406 C 61.839844 78.066406 62.148438 77.976562 62.398438 77.792969 C 62.65625 77.597656 62.855469 77.296875 63.003906 76.875 Z M 59.761719 75.273438 L 63.023438 75.273438 C 62.984375 74.78125 62.855469 74.410156 62.652344 74.160156 C 62.339844 73.785156 61.929688 73.59375 61.421875 73.59375 C 60.960938 73.59375 60.582031 73.75 60.269531 74.0625 C 59.964844 74.367188 59.800781 74.765625 59.761719 75.273438 Z M 59.761719 75.273438 "/>
<path style=" stroke:none;fill-rule:nonzero;fill:rgb(0%,0%,0%);fill-opacity:1;" d="M 64.886719 77.011719 L 65.863281 76.855469 C 65.910156 77.246094 66.0625 77.546875 66.3125 77.753906 C 66.570312 77.964844 66.921875 78.066406 67.367188 78.066406 C 67.820312 78.066406 68.15625 77.976562 68.382812 77.792969 C 68.601562 77.613281 68.714844 77.398438 68.714844 77.148438 C 68.714844 76.914062 68.617188 76.738281 68.421875 76.621094 C 68.273438 76.53125 67.9375 76.414062 67.40625 76.269531 C 66.671875 76.089844 66.164062 75.933594 65.882812 75.800781 C 65.609375 75.671875 65.398438 75.488281 65.257812 75.253906 C 65.109375 75.019531 65.042969 74.761719 65.042969 74.472656 C 65.042969 74.214844 65.101562 73.976562 65.21875 73.75 C 65.335938 73.53125 65.496094 73.339844 65.707031 73.183594 C 65.863281 73.082031 66.066406 72.988281 66.332031 72.910156 C 66.605469 72.832031 66.886719 72.792969 67.191406 72.792969 C 67.644531 72.792969 68.039062 72.859375 68.382812 72.988281 C 68.734375 73.121094 68.992188 73.296875 69.164062 73.515625 C 69.328125 73.742188 69.445312 74.039062 69.515625 74.414062 L 68.539062 74.550781 C 68.5 74.253906 68.367188 74.019531 68.148438 73.847656 C 67.9375 73.679688 67.644531 73.59375 67.269531 73.59375 C 66.808594 73.59375 66.488281 73.671875 66.292969 73.828125 C 66.097656 73.976562 66 74.148438 66 74.355469 C 66 74.488281 66.039062 74.601562 66.117188 74.6875 C 66.195312 74.804688 66.320312 74.898438 66.507812 74.960938 C 66.59375 75 66.882812 75.085938 67.367188 75.214844 C 68.070312 75.398438 68.558594 75.546875 68.832031 75.664062 C 69.113281 75.78125 69.339844 75.957031 69.496094 76.191406 C 69.652344 76.414062 69.730469 76.695312 69.730469 77.03125 C 69.730469 77.375 69.632812 77.6875 69.4375 77.96875 C 69.242188 78.257812 68.957031 78.484375 68.597656 78.652344 C 68.246094 78.808594 67.835938 78.886719 67.367188 78.886719 C 66.609375 78.886719 66.027344 78.730469 65.628906 78.417969 C 65.238281 78.09375 64.988281 77.625 64.886719 77.011719 Z M 64.886719 77.011719 "/>
<path style=" stroke:none;fill-rule:nonzero;fill:rgb(0%,0%,0%);fill-opacity:1;" d="M 143.296875 12.824219 C 143.296875 11.496094 143.652344 10.457031 144.371094 9.699219 C 145.082031 8.933594 146.011719 8.546875 147.144531 8.546875 C 147.886719 8.546875 148.554688 8.734375 149.15625 9.09375 C 149.75 9.445312 150.210938 9.945312 150.523438 10.578125 C 150.835938 11.21875 150.992188 11.9375 150.992188 12.726562 C 150.992188 13.546875 150.824219 14.285156 150.503906 14.933594 C 150.175781 15.574219 149.707031 16.0625 149.097656 16.398438 C 148.496094 16.726562 147.847656 16.886719 147.144531 16.886719 C 146.386719 16.886719 145.707031 16.707031 145.113281 16.339844 C 144.511719 15.976562 144.058594 15.476562 143.746094 14.835938 C 143.441406 14.203125 143.296875 13.527344 143.296875 12.824219 Z M 144.390625 12.84375 C 144.390625 13.820312 144.648438 14.59375 145.171875 15.148438 C 145.6875 15.695312 146.347656 15.96875 147.144531 15.96875 C 147.933594 15.96875 148.59375 15.691406 149.117188 15.128906 C 149.632812 14.570312 149.898438 13.773438 149.898438 12.726562 C 149.898438 12.078125 149.785156 11.511719 149.566406 11.027344 C 149.339844 10.535156 149.019531 10.148438 148.589844 9.875 C 148.160156 9.601562 147.679688 9.464844 147.164062 9.464844 C 146.40625 9.464844 145.757812 9.726562 145.210938 10.246094 C 144.664062 10.769531 144.390625 11.632812 144.390625 12.84375 Z M 144.390625 12.84375 "/>
<path style=" stroke:none;fill-rule:nonzero;fill:rgb(0%,0%,0%);fill-opacity:1;" d="M 156.070312 16.75 L 156.070312 15.890625 C 155.609375 16.554688 154.996094 16.886719 154.214844 16.886719 C 153.871094 16.886719 153.554688 16.820312 153.257812 16.691406 C 152.953125 16.550781 152.730469 16.378906 152.574219 16.183594 C 152.425781 15.988281 152.328125 15.75 152.28125 15.460938 C 152.242188 15.265625 152.222656 14.953125 152.222656 14.523438 L 152.222656 10.910156 L 153.199219 10.910156 L 153.199219 14.152344 C 153.199219 14.675781 153.222656 15.023438 153.277344 15.1875 C 153.324219 15.453125 153.453125 15.65625 153.648438 15.8125 C 153.851562 15.960938 154.105469 16.027344 154.410156 16.027344 C 154.707031 16.027344 154.984375 15.960938 155.25 15.8125 C 155.507812 15.65625 155.6875 15.453125 155.796875 15.1875 C 155.898438 14.929688 155.953125 14.542969 155.953125 14.035156 L 155.953125 10.910156 L 156.949219 10.910156 L 156.949219 16.75 Z M 156.070312 16.75 "/>
<path style=" stroke:none;fill-rule:nonzero;fill:rgb(0%,0%,0%);fill-opacity:1;" d="M 160.660156 15.871094 L 160.796875 16.730469 C 160.511719 16.792969 160.261719 16.828125 160.054688 16.828125 C 159.691406 16.828125 159.410156 16.769531 159.214844 16.652344 C 159.019531 16.535156 158.875 16.390625 158.785156 16.203125 C 158.707031 16.023438 158.667969 15.636719 158.667969 15.050781 L 158.667969 11.691406 L 157.945312 11.691406 L 157.945312 10.910156 L 158.667969 10.910156 L 158.667969 9.464844 L 159.664062 8.878906 L 159.664062 10.910156 L 160.660156 10.910156 L 160.660156 11.691406 L 159.664062 11.691406 L 159.664062 15.089844 C 159.664062 15.378906 159.675781 15.558594 159.703125 15.636719 C 159.742188 15.714844 159.800781 15.78125 159.878906 15.832031 C 159.957031 15.886719 160.066406 15.910156 160.210938 15.910156 C 160.328125 15.910156 160.476562 15.898438 160.660156 15.871094 Z M 160.660156 15.871094 "/>
<path style=" stroke:none;fill-rule:nonzero;fill:rgb(0%,0%,0%);fill-opacity:1;" d="M 161.617188 18.976562 L 161.617188 10.910156 L 162.515625 10.910156 L 162.515625 11.671875 C 162.722656 11.375 162.957031 11.15625 163.21875 11.007812 C 163.492188 10.867188 163.824219 10.792969 164.214844 10.792969 C 164.710938 10.792969 165.144531 10.925781 165.523438 11.183594 C 165.902344 11.433594 166.1875 11.789062 166.382812 12.257812 C 166.578125 12.726562 166.675781 13.234375 166.675781 13.78125 C 166.675781 14.382812 166.566406 14.921875 166.34375 15.402344 C 166.136719 15.886719 165.828125 16.257812 165.425781 16.515625 C 165.023438 16.757812 164.59375 16.886719 164.136719 16.886719 C 163.8125 16.886719 163.519531 16.8125 163.257812 16.671875 C 162.996094 16.53125 162.78125 16.355469 162.613281 16.144531 L 162.613281 18.976562 Z M 162.515625 13.859375 C 162.515625 14.617188 162.664062 15.179688 162.964844 15.539062 C 163.277344 15.890625 163.648438 16.066406 164.078125 16.066406 C 164.507812 16.066406 164.878906 15.886719 165.191406 15.519531 C 165.515625 15.144531 165.679688 14.5625 165.679688 13.78125 C 165.679688 13.039062 165.523438 12.488281 165.210938 12.121094 C 164.910156 11.746094 164.546875 11.554688 164.117188 11.554688 C 163.699219 11.554688 163.328125 11.757812 163.003906 12.160156 C 162.679688 12.550781 162.515625 13.117188 162.515625 13.859375 Z M 162.515625 13.859375 "/>
<path style=" stroke:none;fill-rule:nonzero;fill:rgb(0%,0%,0%);fill-opacity:1;" d="M 171.699219 16.75 L 171.699219 15.890625 C 171.242188 16.554688 170.625 16.886719 169.84375 16.886719 C 169.503906 16.886719 169.183594 16.820312 168.886719 16.691406 C 168.585938 16.550781 168.359375 16.378906 168.203125 16.183594 C 168.058594 15.988281 167.960938 15.75 167.910156 15.460938 C 167.871094 15.265625 167.851562 14.953125 167.851562 14.523438 L 167.851562 10.910156 L 168.828125 10.910156 L 168.828125 14.152344 C 168.828125 14.675781 168.851562 15.023438 168.90625 15.1875 C 168.957031 15.453125 169.082031 15.65625 169.277344 15.8125 C 169.484375 15.960938 169.738281 16.027344 170.039062 16.027344 C 170.335938 16.027344 170.617188 15.960938 170.878906 15.8125 C 171.136719 15.65625 171.320312 15.453125 171.425781 15.1875 C 171.527344 14.929688 171.582031 14.542969 171.582031 14.035156 L 171.582031 10.910156 L 172.578125 10.910156 L 172.578125 16.75 Z M 171.699219 16.75 "/>
<path style=" stroke:none;fill-rule:nonzero;fill:rgb(0%,0%,0%);fill-opacity:1;" d="M 176.292969 15.871094 L 176.429688 16.730469 C 176.140625 16.792969 175.890625 16.828125 175.6875 16.828125 C 175.320312 16.828125 175.042969 16.769531 174.847656 16.652344 C 174.652344 16.535156 174.503906 16.390625 174.417969 16.203125 C 174.339844 16.023438 174.300781 15.636719 174.300781 15.050781 L 174.300781 11.691406 L 173.578125 11.691406 L 173.578125 10.910156 L 174.300781 10.910156 L 174.300781 9.464844 L 175.296875 8.878906 L 175.296875 10.910156 L 176.292969 10.910156 L 176.292969 11.691406 L 175.296875 11.691406 L 175.296875 15.089844 C 175.296875 15.378906 175.304688 15.558594 175.335938 15.636719 C 175.375 15.714844 175.433594 15.78125 175.511719 15.832031 C 175.589844 15.886719 175.695312 15.910156 175.84375 15.910156 C 175.960938 15.910156 176.105469 15.898438 176.292969 15.871094 Z M 176.292969 15.871094 "/>
<path style="fill:none;stroke-width:1;stroke-linecap:round;stroke-linejoin:round;stroke:rgb(0%,0%,0%);stroke-opacity:1;stroke-miterlimit:10;" d="M 408.465625 462.046875 L 405.175 462.096875 C 402.971875 462.128125 401.15625 460.371875 401.11875 458.1625 L 401.1 457.3 " transform="matrix(1.25,0,0,1.25,-420,-496.25)"/>
<path style="fill:none;stroke-width:1;stroke-linecap:butt;stroke-linejoin:miter;stroke:rgb(0%,0%,0%);stroke-opacity:1;stroke-miterlimit:10;" d="M 401.03125 453.3 L 401.1 457.3 M 399.6 457.325 L 401.03125 453.3 L 402.6 457.275 " transform="matrix(1.25,0,0,1.25,-420,-496.25)"/>
<path style="fill:none;stroke-width:1;stroke-linecap:round;stroke-linejoin:round;stroke:rgb(0%,0%,0%);stroke-opacity:1;stroke-miterlimit:10;" d="M 458.140625 461.65 L 454.85 461.69375 C 452.65 461.73125 450.83125 459.971875 450.79375 457.765625 L 450.778125 456.9 " transform="matrix(1.25,0,0,1.25,-420,-496.25)"/>
<path style="fill:none;stroke-width:1;stroke-linecap:butt;stroke-linejoin:miter;stroke:rgb(0%,0%,0%);stroke-opacity:1;stroke-miterlimit:10;" d="M 450.70625 452.9 L 450.778125 456.9 M 449.278125 456.925 L 450.70625 452.9 L 452.278125 456.875 " transform="matrix(1.25,0,0,1.25,-420,-496.25)"/>
<path style="fill:none;stroke-width:1;stroke-linecap:round;stroke-linejoin:round;stroke:rgb(0%,0%,0%);stroke-opacity:1;stroke-miterlimit:10;" d="M 497.03125 461.69375 L 500.50625 461.684375 C 502.71875 461.675 504.503125 459.878125 504.496875 457.66875 C 504.496875 457.653125 504.496875 457.63125 504.49375 457.6125 L 504.48125 456.8125 " transform="matrix(1.25,0,0,1.25,-420,-496.25)"/>
<path style="fill:none;stroke-width:1;stroke-linecap:butt;stroke-linejoin:miter;stroke:rgb(0%,0%,0%);stroke-opacity:1;stroke-miterlimit:10;" d="M 504.409375 452.8125 L 504.48125 456.8125 M 502.98125 456.840625 L 504.409375 452.8125 L 505.98125 456.784375 " transform="matrix(1.25,0,0,1.25,-420,-496.25)"/>
<path style="fill:none;stroke-width:1;stroke-linecap:round;stroke-linejoin:round;stroke:rgb(0%,0%,0%);stroke-opacity:1;stroke-miterlimit:10;" d="M 495.95625 461.5625 L 492.671875 461.609375 C 490.465625 461.640625 488.65 459.88125 488.6125 457.68125 L 488.596875 456.8125 " transform="matrix(1.25,0,0,1.25,-420,-496.25)"/>
<path style="fill:none;stroke-width:1;stroke-linecap:butt;stroke-linejoin:miter;stroke:rgb(0%,0%,0%);stroke-opacity:1;stroke-miterlimit:10;" d="M 488.528125 452.8125 L 488.596875 456.8125 M 487.096875 456.840625 L 488.528125 452.8125 L 490.096875 456.784375 " transform="matrix(1.25,0,0,1.25,-420,-496.25)"/>
<path style=" stroke:none;fill-rule:nonzero;fill:rgb(0%,0%,0%);fill-opacity:1;" d="M 116.601562 101.125 L 116.601562 99.621094 L 118.105469 99.621094 L 118.105469 101.125 Z M 121.601562 101.125 L 121.601562 99.621094 L 123.105469 99.621094 L 123.105469 101.125 Z M 126.601562 101.125 L 126.601562 99.621094 L 128.105469 99.621094 L 128.105469 101.125 Z M 126.601562 101.125 "/>
<path style=" stroke:none;fill-rule:nonzero;fill:rgb(0%,0%,0%);fill-opacity:1;" d="M 228.683594 76.949219 C 229.175781 77.292969 229.632812 77.535156 230.050781 77.691406 L 229.738281 78.433594 C 229.152344 78.226562 228.570312 77.894531 228 77.4375 C 227.398438 77.78125 226.742188 77.945312 226.027344 77.945312 C 225.296875 77.945312 224.632812 77.769531 224.035156 77.417969 C 223.449219 77.066406 222.992188 76.574219 222.667969 75.933594 C 222.355469 75.300781 222.199219 74.582031 222.199219 73.785156 C 222.199219 72.996094 222.355469 72.273438 222.667969 71.617188 C 222.992188 70.96875 223.453125 70.476562 224.054688 70.132812 C 224.652344 69.78125 225.316406 69.605469 226.046875 69.605469 C 226.789062 69.605469 227.457031 69.792969 228.058594 70.152344 C 228.65625 70.503906 229.113281 71.003906 229.425781 71.636719 C 229.738281 72.261719 229.894531 72.980469 229.894531 73.785156 C 229.894531 74.441406 229.789062 75.03125 229.582031 75.5625 C 229.386719 76.101562 229.085938 76.558594 228.683594 76.949219 Z M 226.339844 75.582031 C 226.949219 75.753906 227.457031 76.007812 227.863281 76.34375 C 228.488281 75.789062 228.800781 74.933594 228.800781 73.785156 C 228.800781 73.121094 228.6875 72.550781 228.46875 72.066406 C 228.246094 71.589844 227.921875 71.207031 227.492188 70.933594 C 227.0625 70.660156 226.578125 70.523438 226.046875 70.523438 C 225.25 70.523438 224.59375 70.796875 224.074219 71.34375 C 223.550781 71.890625 223.292969 72.707031 223.292969 73.785156 C 223.292969 74.832031 223.550781 75.632812 224.074219 76.1875 C 224.59375 76.75 225.25 77.027344 226.046875 77.027344 C 226.4375 77.027344 226.800781 76.960938 227.140625 76.8125 C 226.800781 76.609375 226.449219 76.457031 226.085938 76.363281 Z M 226.339844 75.582031 "/>
<path style=" stroke:none;fill-rule:nonzero;fill:rgb(0%,0%,0%);fill-opacity:1;" d="M 235.03125 77.808594 L 235.03125 76.949219 C 234.574219 77.613281 233.957031 77.945312 233.175781 77.945312 C 232.835938 77.945312 232.515625 77.878906 232.21875 77.75 C 231.917969 77.609375 231.691406 77.4375 231.535156 77.242188 C 231.390625 77.046875 231.292969 76.808594 231.242188 76.519531 C 231.203125 76.324219 231.183594 76.011719 231.183594 75.582031 L 231.183594 71.96875 L 232.160156 71.96875 L 232.160156 75.210938 C 232.160156 75.734375 232.183594 76.082031 232.238281 76.246094 C 232.289062 76.511719 232.414062 76.714844 232.609375 76.871094 C 232.816406 77.019531 233.070312 77.085938 233.371094 77.085938 C 233.667969 77.085938 233.949219 77.019531 234.210938 76.871094 C 234.46875 76.714844 234.652344 76.511719 234.757812 76.246094 C 234.859375 75.988281 234.914062 75.601562 234.914062 75.09375 L 234.914062 71.96875 L 235.910156 71.96875 L 235.910156 77.808594 Z M 235.03125 77.808594 "/>
<path style=" stroke:none;fill-rule:nonzero;fill:rgb(0%,0%,0%);fill-opacity:1;" d="M 241.445312 75.933594 L 242.480469 76.050781 C 242.308594 76.652344 242.003906 77.121094 241.5625 77.457031 C 241.132812 77.785156 240.578125 77.945312 239.902344 77.945312 C 239.054688 77.945312 238.378906 77.6875 237.871094 77.164062 C 237.375 76.632812 237.128906 75.890625 237.128906 74.9375 C 237.128906 73.960938 237.382812 73.210938 237.890625 72.671875 C 238.398438 72.125 239.054688 71.851562 239.863281 71.851562 C 240.644531 71.851562 241.273438 72.121094 241.757812 72.652344 C 242.25 73.175781 242.5 73.917969 242.5 74.878906 C 242.5 74.949219 242.5 75.035156 242.5 75.152344 L 238.144531 75.152344 C 238.183594 75.792969 238.363281 76.28125 238.691406 76.617188 C 239.015625 76.960938 239.425781 77.125 239.921875 77.125 C 240.285156 77.125 240.589844 77.039062 240.839844 76.851562 C 241.097656 76.65625 241.300781 76.355469 241.445312 75.933594 Z M 238.203125 74.332031 L 241.464844 74.332031 C 241.425781 73.839844 241.300781 73.46875 241.09375 73.21875 C 240.78125 72.84375 240.371094 72.652344 239.863281 72.652344 C 239.40625 72.652344 239.023438 72.808594 238.710938 73.121094 C 238.410156 73.425781 238.242188 73.824219 238.203125 74.332031 Z M 238.203125 74.332031 "/>
<path style=" stroke:none;fill-rule:nonzero;fill:rgb(0%,0%,0%);fill-opacity:1;" d="M 243.699219 77.808594 L 243.699219 71.96875 L 244.597656 71.96875 L 244.597656 72.867188 C 244.816406 72.453125 245.027344 72.179688 245.222656 72.046875 C 245.417969 71.921875 245.632812 71.851562 245.867188 71.851562 C 246.1875 71.851562 246.53125 71.960938 246.882812 72.164062 L 246.53125 73.082031 C 246.296875 72.941406 246.050781 72.867188 245.808594 72.867188 C 245.597656 72.867188 245.402344 72.9375 245.222656 73.0625 C 245.050781 73.195312 244.929688 73.375 244.851562 73.609375 C 244.742188 73.960938 244.695312 74.347656 244.695312 74.761719 L 244.695312 77.808594 Z M 243.699219 77.808594 "/>
<path style=" stroke:none;fill-rule:nonzero;fill:rgb(0%,0%,0%);fill-opacity:1;" d="M 247.425781 80.054688 L 247.308594 79.136719 C 247.527344 79.1875 247.71875 79.214844 247.875 79.214844 C 248.09375 79.214844 248.269531 79.175781 248.402344 79.097656 C 248.527344 79.03125 248.640625 78.933594 248.734375 78.804688 C 248.78125 78.699219 248.878906 78.453125 249.027344 78.0625 C 249.050781 78.011719 249.085938 77.933594 249.125 77.828125 L 246.898438 71.96875 L 247.972656 71.96875 L 249.183594 75.347656 C 249.339844 75.777344 249.480469 76.226562 249.613281 76.695312 C 249.714844 76.257812 249.847656 75.8125 250.003906 75.367188 L 251.253906 71.96875 L 252.25 71.96875 L 250.023438 77.90625 C 249.789062 78.542969 249.601562 78.988281 249.476562 79.234375 C 249.289062 79.558594 249.089844 79.792969 248.871094 79.9375 C 248.644531 80.09375 248.371094 80.171875 248.050781 80.171875 C 247.863281 80.171875 247.660156 80.132812 247.425781 80.054688 Z M 247.425781 80.054688 "/>
</g>
</svg>
